<svg width="318" height="231" viewBox="0 0 318 231" fill="none" xmlns="http://www.w3.org/2000/svg">
<path fill-rule="evenodd" clip-rule="evenodd" d="M270.631 88.2211C265.943 84.6511 254.172 83.0456 249.168 86.4831C244.226 89.935 243.687 95.5173 241.384 100.652C239.211 99.6278 235.623 101.095 234.993 103.112C234.212 104.063 234.176 106.734 233.638 108.013C210.193 111.745 206.633 130.023 203.811 150.774C200.078 171.831 191.604 192.842 195.283 214.51C194.803 215.204 194.425 215.878 194.076 216.679C193.238 218.103 194.317 220.12 196.006 220.042C198.192 219.85 200.357 219.588 202.553 219.506C208.642 219.295 214.737 219.32 220.828 219.397L221.659 219.408C252.357 219.79 283.054 220.543 313.754 220.743C314.868 220.745 315.413 219.746 315.264 218.76C314.965 216.777 314.687 214.792 314.397 212.807C321.658 214.725 329.377 215.208 336.618 213.009C337.125 212.493 335.438 212.773 335.17 212.694C341.834 208.141 339.844 198.548 339.254 191.639C335.583 167.964 334.289 141.77 320.108 121.568C313.972 113.324 304.978 106.796 294.642 105.328L294.355 105.288C291.333 104.885 287.965 104.756 285.323 103.112C282.351 100.739 281.084 96.3555 277.958 96.3145C276.926 96.3009 275.521 97.607 274.01 98.4937C273.897 96.543 272.846 94.8968 272.614 93.3844L272.595 93.255C272.353 91.4917 272.684 89.9053 270.631 88.2211ZM220.246 151.399C226.834 146.822 243.854 149.122 244.244 149.378C245.102 149.943 245.471 149.993 245.935 150.725C246.393 150.786 246.851 150.849 247.308 150.914C248.226 151.214 247.546 152.342 246.486 151.94C247.123 154.689 245.248 156.644 244.501 159.362C244.258 160.244 244.492 161.831 244.501 162.733C244.428 163.882 243.157 165.24 243.369 166.394C244.122 170.494 248.209 174.494 246.486 178.47C245.345 180.716 241.911 181.861 239.629 182.625C234.9 184.44 226.66 182.557 223.912 178.47C222.447 176.291 220.749 170.793 219.875 169.087L219.681 166.382C219.204 159.657 218.779 152.418 220.246 151.399Z" fill="white"/>
<path fill-rule="evenodd" clip-rule="evenodd" d="M279.106 95.9178C278.651 95.5149 277.978 96.0211 278.267 96.5652C278.917 97.7882 279.583 98.9469 280.455 100.028C280.983 100.683 281.549 101.303 282.123 101.916C280.651 103.19 279.388 104.772 278.195 106.254C276.67 108.15 275.229 110.126 273.517 111.86C271.829 113.571 269.962 114.767 267.705 115.564L267.249 115.723C264.982 116.519 262.558 117.594 261.28 119.74C261.028 120.164 261.536 120.687 261.962 120.423C264.183 119.047 266.792 118.771 269.21 117.862C271.545 116.985 273.581 115.634 275.379 113.91C277.175 112.189 278.682 110.231 280.255 108.314C281.81 106.419 283.484 104.8 285.324 103.196C288.162 105.106 291.403 105.937 294.697 106.753L295.057 106.842C298.356 107.659 301.637 108.607 304.731 110.029C307.46 111.283 310.143 112.78 312.366 114.82C314.725 116.986 316.561 119.751 318.242 122.455C322.001 128.506 324.644 135.134 326.971 141.843C329.391 148.821 331.416 155.939 333.05 163.142C333.881 166.806 334.556 170.495 335.111 174.211C335.378 176 335.615 177.794 335.823 179.591C336.046 181.51 336.097 183.485 336.685 185.33C336.938 186.121 337.534 186.449 338.13 186.421L338.252 187.937C338.412 189.957 338.562 191.978 338.613 194.011C338.697 197.391 338.658 200.762 338.415 204.135L338.381 204.595C338.19 207.057 337.763 209.823 335.912 211.626C333.995 213.493 331.046 214.08 328.462 214.113C322.444 214.192 316.651 211.348 311.325 208.853C305.841 206.284 300.506 203.433 295.299 200.34C292.647 198.765 290.024 197.137 287.434 195.462C286.164 194.64 284.902 193.804 283.649 192.954C282.932 192.468 282.252 191.934 281.522 191.503C281.88 191.169 282.04 190.646 281.74 190.188C283.851 188.356 284.729 185.086 284.832 182.44C284.915 180.304 284.601 178.175 284.353 176.059C284.228 174.992 284.073 173.927 283.913 172.865C283.849 172.446 283.801 171.997 283.727 171.554C289.427 174.687 295.287 177.476 301.302 179.954C304.385 181.225 307.508 182.367 310.674 183.414L311.316 183.625C314.315 184.607 317.387 185.534 320.488 186.096C320.654 186.126 320.788 185.881 320.611 185.803C317.589 184.469 314.462 183.345 311.395 182.117L310.891 181.911C310.949 181.908 311.009 181.9 311.072 181.885C312.871 181.451 314.655 180.782 316.42 180.219C318.057 179.696 319.897 179.367 321.428 178.578C321.546 178.517 321.48 178.353 321.365 178.346C319.645 178.226 317.777 178.728 316.09 179.023L315.457 179.134C314.395 179.321 313.31 179.522 312.254 179.785C312.216 179.431 312.018 179.075 311.737 178.867C308.641 176.575 308.956 171.945 308.625 168.531L308.379 165.997C307.947 161.561 307.491 157.126 306.797 152.723C306.76 152.488 306.396 152.555 306.394 152.777C306.359 158.235 306.771 163.667 306.977 169.116L307.009 170.01C307.123 173.372 307.213 176.864 309.33 179.451C309.034 179.278 308.634 179.278 308.394 179.563C308.099 179.914 307.929 180.308 307.934 180.694C306.021 179.892 304.116 179.069 302.22 178.229C296.124 175.528 290.157 172.507 284.347 169.237C283.722 168.885 283.128 169.161 282.819 169.625L282.774 169.619C282.766 169.618 282.759 169.617 282.751 169.617L282.707 169.615C282.705 169.615 282.703 169.615 282.702 169.615C281.884 169.166 280.77 169.486 280.068 170.141C280.048 170.161 280.03 170.182 280.011 170.203C279.123 169.804 278.293 169.266 277.541 168.584C276 167.187 274.695 165.461 273.557 163.729C271.462 160.54 269.682 156.994 266.852 154.369C264.553 152.237 261.702 150.909 258.711 150.075C258.724 149.988 258.69 149.895 258.63 149.833C258.476 149.675 258.367 149.621 258.168 149.716C258.153 149.724 258.143 149.735 258.137 149.746L257.845 149.248C257.686 148.977 257.522 148.704 257.465 148.633C257.126 148.205 256.776 147.781 256.421 147.366C255.82 146.662 255.134 145.968 254.341 145.481C252.603 144.413 250.776 145.017 248.989 145.601C247.91 145.953 246.834 146.318 245.756 146.676L245.645 146.712C244.842 146.97 243.901 147.196 243.542 148.047C243.4 148.384 243.378 148.734 243.444 149.073C235.812 147.132 227.335 148.024 219.887 150.302C219.602 150.39 219.316 150.625 219.256 150.933C218.403 155.31 218.023 159.797 218.409 164.248C218.742 168.09 219.593 171.855 221.197 175.372L221.288 175.571C222.796 178.83 225.185 182.849 228.834 183.87C231.038 184.487 233.475 184.123 235.722 184.01C237.906 183.9 240.138 183.884 242.301 183.541C244.228 183.235 245.916 182.372 247.107 180.805C248.134 179.454 248.675 177.82 249.118 176.195C249.321 176.26 249.522 176.329 249.721 176.406C250.558 176.733 251.267 177.261 251.908 177.882C253.262 179.193 254.312 180.785 255.729 182.037C257.011 183.169 258.473 184.05 260.04 184.728C263.288 186.131 266.772 186.692 270.208 187.436L270.448 187.488C273.034 188.055 275.674 188.752 277.957 190.099C278.002 190.495 278.182 190.868 278.472 191.112C278.069 191.49 277.899 192.089 278.252 192.651C279.241 194.22 280.943 195.112 282.471 196.115L282.571 196.181C284.074 197.177 285.591 198.154 287.12 199.111C290.228 201.057 293.401 202.896 296.619 204.654C301.795 207.482 307.082 210.149 312.464 212.568C312.141 214.158 312.259 215.796 312.016 217.396L311.979 217.625C311.875 218.219 312.015 218.715 312.424 219.103L312.468 219.143L312.467 219.138L312.505 219.173L312.518 219.184L312.514 219.18C312.561 219.223 312.61 219.264 312.659 219.298L312.722 219.339C313.116 219.578 313.624 219.575 314.027 219.364L314.073 219.339L314.15 219.294C314.683 218.988 315.051 218.228 314.83 217.625C314.286 216.142 314.081 214.559 313.579 213.066L313.977 213.244L314.502 213.473C320.177 215.927 326.48 217.993 332.663 216.32C335.395 215.581 337.948 214.017 339.315 211.468C340.66 208.96 340.85 206.048 340.922 203.258C341.01 199.814 340.825 196.318 340.371 192.904C340.066 190.612 339.698 188.277 339.129 186.009C339.422 185.751 339.637 185.381 339.693 184.923C339.962 182.756 339.492 180.505 339.204 178.35C338.924 176.246 338.613 174.146 338.262 172.052C337.554 167.825 336.73 163.606 335.772 159.428C334.066 151.992 331.813 144.689 329.101 137.56L328.863 136.939C326.357 130.422 323.455 124.045 319.415 118.321C317.482 115.582 315.439 113.099 312.708 111.125C310.149 109.276 307.263 107.945 304.284 106.927C301.303 105.909 298.238 105.226 295.119 104.802C291.952 104.371 288.609 104.106 285.654 102.807C286.028 102.137 285.707 101.233 285.078 100.817C282.961 99.4185 281.003 97.599 279.106 95.9178ZM211.339 156.736C211.25 156.602 211.04 156.687 211.079 156.846C212.108 161.064 213.075 165.291 213.706 169.589C214.845 177.348 214.636 185.208 214.542 193.024L214.538 193.428C214.49 197.638 214.423 201.848 214.284 206.056C214.214 208.183 214.075 210.331 214.15 212.459C214.192 213.613 214.499 214.705 214.608 215.845C214.704 216.843 214.619 217.855 214.571 218.854C214.539 219.518 215.519 219.49 215.586 218.854L215.671 218.032C215.782 216.991 215.919 215.957 216.26 214.961C216.67 213.763 216.867 212.587 217.009 211.329C217.227 209.402 217.324 207.455 217.408 205.515L217.465 204.172C217.816 196.061 217.804 187.913 217.236 179.811L217.194 179.232C216.631 171.573 215.654 163.298 211.339 156.736ZM233.286 108.467C233.555 108.357 233.461 107.95 233.163 108.021L232.621 108.15C228.653 109.1 224.756 110.13 221.052 111.899C217.346 113.669 214.208 116.311 211.715 119.56C206.868 125.875 204.853 133.55 203.263 141.218C201.496 149.738 199.887 158.289 198.105 166.807L197.774 168.394C196.125 176.327 194.567 184.265 193.42 192.292L193.338 192.874C192.181 201.128 191.237 210.724 192.5 219C192.75 220.637 195.607 219.617 195.5 218C195.192 213.323 195.087 208.228 195.3 203.541C195.513 198.853 195.953 194.186 196.608 189.539C197.16 185.628 197.982 181.766 198.71 177.887L198.824 177.274C199.433 173.974 200.061 170.678 200.688 167.381L201.624 162.445C203.028 155.055 204.459 147.657 206.077 140.313L206.173 139.881C207.755 132.815 210.088 125.414 214.836 119.803C219.653 114.109 226.55 111.241 233.286 108.467ZM250.791 183.412C250.675 183.154 250.27 183.182 250.145 183.412C249.657 184.313 249.603 185.462 249.51 186.479L249.501 186.584C249.383 187.825 249.279 189.07 249.216 190.314C249.095 192.677 249.037 195.036 249.045 197.402C249.052 199.826 249.101 202.247 249.232 204.668L249.267 205.317C249.387 207.42 249.587 209.767 250.586 211.605C250.95 212.274 251.938 212.078 252.148 211.401C252.838 209.188 252.484 206.563 252.307 204.296L252.17 202.526C252.034 200.757 251.904 198.987 251.801 197.215C251.66 194.792 251.544 192.366 251.432 189.941C251.396 189.154 251.356 188.366 251.315 187.578L251.251 186.397C251.197 185.409 251.201 184.325 250.791 183.412ZM328.309 186.549L328.004 186.254C327.067 185.338 325.883 183.926 324.498 184.013C323.946 184.048 323.594 184.507 323.708 185.05C323.953 186.211 325.138 186.814 325.991 187.523C326.925 188.3 327.806 189.13 328.685 189.968C329.465 190.712 330.215 191.476 330.947 192.264L331.22 192.561C331.483 192.847 333.351 194.537 333.149 194.975L333.138 194.995C333.082 195.079 333.175 195.194 333.269 195.165C334.075 194.91 334.025 194.219 333.72 193.518C333.134 192.172 332.108 190.926 331.211 189.777C330.317 188.63 329.35 187.562 328.309 186.549ZM247.867 152.789C248.491 151.315 250.79 151.346 252.094 151.434C255.38 151.656 258.935 152.487 261.859 154.023C264.89 155.615 266.931 158.166 268.758 160.987L268.844 161.119C270.624 163.887 272.339 167.164 275.127 169.067C276.547 170.036 278.205 170.922 279.928 171.305C280.047 171.513 280.238 171.678 280.49 171.737L280.607 171.764C281.097 171.873 281.86 171.992 282.518 171.921C282.514 172.243 282.517 172.563 282.509 172.868C282.486 173.742 282.476 174.621 282.476 175.496C282.476 177.33 282.574 179.167 282.498 181.001C282.43 182.622 282.201 184.317 281.422 185.767C280.851 186.83 280.097 187.534 279.187 188.206C276.949 186.842 274.418 186.01 271.849 185.385C268.742 184.629 265.561 184.124 262.525 183.099C261.063 182.605 259.658 181.96 258.385 181.082C257.035 180.151 256.003 178.89 254.941 177.658L254.775 177.466C253.691 176.223 252.509 175.034 250.978 174.361C249.659 173.78 247.921 173.677 246.768 172.779C246.165 172.309 246.115 171.627 246.051 170.929C246.79 171.035 247.572 170.865 248.308 170.779L248.689 170.734C249.385 170.652 250.065 170.561 250.75 170.384C250.877 170.351 250.877 170.159 250.75 170.126C249.94 169.917 249.138 169.828 248.308 169.731L248.113 169.706C247.362 169.608 246.572 169.459 245.835 169.625C245.703 169.122 245.512 168.641 245.245 168.161C244.869 167.485 244.157 166.719 244.061 165.93C244.033 165.694 244.088 165.416 244.199 165.208L244.237 165.137C244.284 165.053 244.339 164.969 244.42 164.916C244.429 164.927 244.448 164.939 244.489 164.952C245.056 165.13 245.551 164.853 245.813 164.425C246.927 164.563 248.143 164.517 249.188 164.563L250.245 164.614C251.374 164.666 252.554 164.689 253.615 164.46C253.763 164.429 253.808 164.182 253.66 164.119C252.355 163.561 250.773 163.383 249.377 163.169C248.597 163.049 247.812 162.958 247.03 162.852C246.509 162.782 245.956 162.666 245.416 162.638C244.064 160.954 244.793 158.297 246.675 157.572C247.361 157.874 247.978 157.698 248.727 157.634C249.475 157.57 250.225 157.526 250.976 157.529C252.481 157.536 254.075 157.932 255.565 157.762C255.808 157.734 256.033 157.411 255.792 157.214C254.651 156.284 253.017 155.98 251.569 155.782L251.269 155.741C250.783 155.678 250.193 155.585 249.58 155.53C249.442 155.26 249.194 155.055 248.82 155.005C248.709 154.99 248.598 154.981 248.487 154.971L248.488 154.96C247.578 154.916 247.618 153.379 247.867 152.789ZM310.176 181.549C310.192 181.574 310.21 181.597 310.229 181.62L310.258 181.654L310.108 181.593L310.176 181.549ZM263.843 160.068L263.815 160.07C263.026 160.16 262.485 160.799 262.292 161.556C262.011 162.657 262.149 163.653 261.474 164.647C260.781 165.669 260.354 166.488 260.253 167.75C260.212 168.27 260.231 168.788 260.115 169.297L260.031 169.653C259.942 170.033 259.869 170.399 259.914 170.807C259.954 171.179 260.135 171.469 260.508 171.588C261.724 171.977 262.663 171.081 262.978 169.948C263.249 168.969 262.887 167.803 263.27 166.883C263.482 166.374 263.873 165.948 264.094 165.435C264.313 164.926 264.423 164.395 264.458 163.842C264.525 162.797 263.6 161.541 264.116 160.594C264.226 160.392 264.101 160.062 263.843 160.068ZM279.997 149.28C279.174 149.113 278.239 148.729 277.427 149.048C277.01 149.212 276.804 149.721 277.156 150.075C277.769 150.689 278.659 150.723 279.483 150.868L279.556 150.881C280.531 151.061 281.508 151.232 282.486 151.395C284.327 151.7 286.172 151.969 288.023 152.198C289.925 152.433 291.832 152.643 293.741 152.801L294.481 152.861C296.094 152.99 297.772 153.087 299.355 152.84C299.585 152.805 299.548 152.47 299.355 152.411C297.621 151.886 295.719 151.745 293.926 151.523C292.021 151.287 290.118 151.037 288.221 150.741C286.326 150.445 284.434 150.128 282.549 149.777C281.697 149.618 280.846 149.453 279.997 149.28ZM250.282 147.595C251.005 147.34 251.8 146.96 252.583 147.087C253.933 147.306 255.135 148.622 256.204 149.488L255.667 149.384C252.921 148.856 249.284 148.287 246.979 150.033C246.973 150.023 246.969 150.013 246.962 150.003C246.776 149.721 246.56 149.5 246.325 149.258C246.303 149.237 246.281 149.215 246.259 149.193L246.132 149.058L246.423 148.957C247.045 148.737 247.782 148.453 247.898 148.412L247.906 148.409C248.699 148.141 249.493 147.875 250.282 147.595ZM272.846 90.0334C272.959 88.5799 270.697 88.5919 270.585 90.0334C270.34 93.1805 271.048 96.2978 272.573 99.0568C272.584 99.077 272.596 99.0948 272.608 99.1138C271.655 99.6099 270.69 100.086 269.705 100.511C268.444 101.056 267.159 101.551 265.851 101.972C264.669 102.352 263.211 102.503 262.217 103.295C260.12 104.964 260.908 108.43 261.311 110.676L261.374 111.031C261.575 112.187 261.72 113.373 261.233 114.482C260.712 115.667 259.66 116.546 258.721 117.394L258.532 117.566C257.7 118.323 256.75 119.244 256.14 120.271C255.583 119.12 254.824 118.179 254.021 117.12C253.448 116.364 253.856 116.115 254.267 115.376C254.663 114.665 254.857 113.908 254.733 113.097C254.504 111.6 253.308 110.518 252.116 109.705C250.71 108.746 249.139 108.035 247.685 107.143C244.697 105.309 241.787 103.213 239.165 100.884C239.092 100.82 238.967 100.904 239.025 100.992C241.096 104.143 243.525 106.865 246.509 109.176C247.72 110.112 248.991 110.89 250.271 111.707L250.639 111.943C251.153 112.276 251.794 112.721 252.026 113.287C252.26 113.857 251.761 114.288 251.493 114.76C250.641 116.259 251.052 117.658 252.062 118.93L252.109 118.988C253.113 120.225 253.874 121.376 254.238 122.957C255.02 126.352 253.931 129.889 252.791 133.076L252.746 133.202C252.129 134.92 251.473 136.625 250.938 138.371L250.79 138.853C250.305 140.46 249.907 142.044 250.452 143.695C250.637 144.257 251.403 144.389 251.721 143.861C252.843 141.997 253.123 139.754 253.827 137.704C254.512 135.707 255.299 133.746 255.962 131.741C256.815 129.159 257.385 126.379 257.075 123.671C257.085 123.655 257.095 123.64 257.102 123.623L257.319 123.149C257.911 121.863 258.483 120.74 259.56 119.715C260.682 118.646 261.901 117.7 262.785 116.405C264.704 113.594 263.517 110.467 263.285 107.393L263.259 107.017C263.216 106.378 263.193 105.511 263.61 105.069C264.079 104.572 265.179 104.445 265.801 104.225C267.409 103.656 268.994 102.993 270.503 102.197C271.939 101.439 273.331 100.602 274.627 99.6211L275.283 99.1271C276.319 98.3452 277.394 97.4915 278.088 96.4273C278.169 96.3048 278.032 96.1071 277.887 96.1658C276.728 96.6362 275.669 97.3845 274.584 98.0356C274.567 97.9959 274.548 97.9558 274.525 97.9156C273.183 95.4868 272.631 92.7959 272.846 90.0334ZM235.813 106.674C235.351 105.407 233.246 105.505 233.33 107.01C233.395 108.166 233.885 109.21 234.334 110.26L234.382 110.372C234.846 111.466 235.381 112.493 236.021 113.495C237.245 115.412 238.678 117.19 240.209 118.869C241.597 120.39 243.419 121.321 245.518 121.166C246.403 121.101 247.296 120.876 248.071 120.434C248.991 119.909 249.991 118.333 251.166 118.715C251.279 118.752 251.385 118.585 251.287 118.506C249.931 117.414 248.392 119.107 247.094 119.515C245.138 120.13 243.131 119.45 241.872 117.869C240.557 116.218 239.347 114.37 238.242 112.572C237.681 111.659 237.17 110.712 236.727 109.735C236.281 108.75 236.18 107.679 235.813 106.674ZM238.966 98.8788C239.023 98.7039 238.806 98.5375 238.652 98.6374C237.761 99.2175 236.989 99.9838 236.168 100.656C235.256 101.401 234.337 102.131 233.404 102.85C232.045 103.898 233.622 105.828 234.819 104.683C236.457 103.116 238.25 101.068 238.966 98.8788ZM243.858 92.7481C243.496 91.3524 241.355 91.9279 241.667 93.3073L241.677 93.3494C242.268 95.6279 241.427 97.9475 239.63 99.4247L239.564 99.4783C238.427 100.388 240.038 101.978 241.163 101.077C243.62 99.111 244.642 95.7711 243.858 92.7481Z" fill="black"/>
<path fill-rule="evenodd" clip-rule="evenodd" d="M232.771 149.584C236.602 149.172 240.438 149.259 244.281 149.37C244.588 150.375 245.658 151.231 246.694 151.263C245.882 152.499 245.799 154.171 246.368 155.481C245.159 155.962 244.118 156.827 243.486 158.057C242.61 159.763 242.724 161.662 243.591 163.239C242.851 163.908 242.415 164.995 242.459 166.019C242.507 167.162 243.188 168.138 243.754 169.084C244.365 170.107 244.386 171.007 244.574 172.153C244.849 173.829 245.979 174.846 247.434 175.481L247.357 175.786C246.982 177.246 246.515 178.787 245.443 179.854C244.064 181.228 241.924 181.215 240.102 181.302L240.014 181.306C238.345 181.39 236.677 181.488 235.009 181.582L233.758 181.652C231.838 181.758 229.993 181.77 228.426 180.501C225.866 178.428 224.111 174.998 223.001 171.962C220.669 165.589 220.641 158.595 221.711 151.957C225.3 150.801 229.024 149.986 232.771 149.584Z" fill="white"/>
<path fill-rule="evenodd" clip-rule="evenodd" d="M227.671 57.7385C228.08 54.146 227.55 46.6371 227.515 46.1809C227.291 43.2968 228.642 31.9083 231.197 32.9576C235.482 29.5653 241.189 28.8163 246.526 28.4584C257.612 27.7151 269.405 29.4215 277.965 36.8819C282.198 40.7562 286.319 46.3911 285.988 52.2583C289.834 57.8198 295.257 65.4486 290.464 71.9503C288.835 74.0276 286.246 74.8011 284.2 76.3743C280.084 79.6942 277.502 84.4587 273.347 87.7589C262.338 97.6508 243.646 99.7172 232.831 88.466C224.467 80.3174 225.82 68.1267 227.291 57.7385C228.28 50.7544 226.873 64.747 227.671 57.7385Z" fill="white"/>
<path fill-rule="evenodd" clip-rule="evenodd" d="M261.335 13.2235C258.37 12.6253 255.326 12.253 252.298 12.3651L252.065 12.3741C249.787 12.4652 246.902 12.6666 244.915 13.9912C244.8 13.8765 244.617 13.8176 244.45 13.8972C242.088 15.0244 239.491 15.8394 237.004 16.6493C234.529 17.4551 231.961 17.9871 229.367 18.2015C228.391 18.2822 227.556 19.3362 228.174 20.2814C228.321 20.5067 228.464 20.7342 228.607 20.9623C228.368 20.9374 228.13 20.9118 227.891 20.8877C227.106 20.8087 226.322 21.6464 226.368 22.4107C226.397 22.8914 226.449 23.3664 226.526 23.8357C226.227 23.8294 225.93 23.8743 225.643 23.9956C224.189 24.6097 224.29 26.3416 224.399 27.6593C224.549 29.4879 225.233 31.4248 226.503 32.7934C225.555 33.7782 224.884 34.9542 224.484 36.3509C224.193 37.3708 224.032 38.4572 224.111 39.5189L224.137 39.8368C224.235 40.9889 224.432 42.2645 225.26 43.0933C225.686 43.5207 226.21 43.6764 226.71 43.627C226.408 46.2822 226.214 48.9526 226.031 51.6134L225.946 52.8852C225.539 59.035 225.234 65.2249 225.314 71.3848C225.388 77.1415 226.525 82.7292 230.056 87.4033C233.272 91.6595 237.889 94.7971 243.112 95.9898C245.926 96.6337 248.8 96.6793 251.649 96.269C253.03 96.0696 254.42 95.7638 255.731 95.2814C257.181 94.7458 258.224 93.9576 259.2 92.7763C259.662 92.216 259.44 91.0233 258.52 91.1353C257.13 91.3039 255.86 91.5071 254.527 91.9184L254.336 91.9786C253.009 92.404 251.634 92.7212 250.245 92.8561C247.402 93.1314 244.515 92.8541 241.792 91.9919C237.357 90.5864 233.537 87.4545 231.089 83.5193C228.183 78.8547 227.855 73.5595 227.897 68.196C227.942 62.3104 228.133 56.4215 228.446 50.5421L228.499 49.5622C228.664 46.5367 228.824 43.5093 228.964 40.4818C229.008 39.5322 229.074 38.575 229.194 37.6272C230.29 36.9853 231.272 36.1002 231.912 35.0082C233.197 35.5399 234.55 35.9236 235.794 36.2294C238.676 36.9382 241.668 37.1103 244.601 36.6664C245.393 36.9933 246.2 37.2806 247.019 37.5279C247.24 37.6261 247.462 37.7226 247.683 37.8172C249.659 38.6623 251.662 39.3784 253.748 39.9026L254.26 40.0303C255.357 40.3008 256.549 40.5672 257.717 40.6509C257.909 40.7249 258.116 40.7876 258.342 40.8427C259.405 41.101 260.509 41.1827 261.599 41.0915C262.661 41.0022 263.428 39.9292 262.843 38.9244C262.416 38.1913 261.985 37.4601 261.55 36.7308C263.063 37.3613 264.627 37.8855 266.203 38.33C267.794 38.7782 269.409 39.1562 271.025 39.5037C271.89 39.6879 272.757 39.8513 273.62 40.0355C274.237 40.1666 275.185 40.2349 275.688 40.6414C276.244 41.0877 276.402 42.1285 276.613 42.7705C276.89 43.6042 277.15 44.4418 277.388 45.2889C277.861 46.9792 278.248 48.6943 278.548 50.4264C278.848 52.1604 279.05 53.9116 279.162 55.6684C279.274 57.4233 279.224 59.1896 279.405 60.937C279.502 61.8638 280.497 62.3405 281.232 61.6929C281.318 61.6169 281.405 61.5401 281.491 61.4624L281.619 61.3453C282.248 60.7755 282.858 60.1716 283.361 59.4916C283.452 59.3663 283.539 59.2352 283.621 59.1023C283.634 59.1023 283.646 59.0985 283.659 59.089L283.799 58.984C285.335 57.8407 287.901 56.3501 289.399 58.2495C289.876 58.8546 290.12 59.6251 290.323 60.3684L290.679 61.6987C290.909 62.5672 291.126 63.4404 291.253 64.329C291.539 66.3195 291.395 68.6138 290.025 70.2092C289.478 70.8473 288.724 71.3032 287.883 71.4228C287.414 71.4874 286.951 71.4076 286.485 71.3487C286.012 71.2899 285.557 71.3848 285.084 71.3392C284.331 71.2652 284.003 72.1654 284.284 72.7314C284.436 73.0353 284.615 73.2974 284.818 73.5196C284.654 73.6602 284.499 73.8121 284.349 73.9716C283.904 74.1141 283.505 74.4199 283.207 74.8244C282.966 75.1511 282.841 75.5062 282.82 75.8804C282.793 75.9735 282.77 76.0684 282.749 76.1653L282.342 76.8266C282.252 76.9716 282.163 77.1149 282.073 77.2555C281.036 78.8888 279.885 80.2715 278.455 81.5744C277.078 82.8279 275.584 83.9504 274.29 85.2951L274.138 85.4547C272.932 86.7255 271.66 88.2638 272.132 90.1116C272.254 90.5864 272.917 90.9283 273.35 90.6073C274.742 89.5741 275.443 87.937 276.624 86.6834C277.84 85.3919 279.186 84.2315 280.406 82.9438C281.559 81.7282 282.468 80.3513 283.154 78.8357C283.428 79.1376 283.826 79.3523 284.379 79.4358C285.329 79.5783 286.214 79.0218 286.628 78.1994C286.894 78.3172 287.165 78.4235 287.439 78.5071C288.878 78.9477 289.784 77.3466 289.241 76.1634C288.951 75.529 288.588 74.9782 288.138 74.5148C289.545 74.3211 290.977 73.5937 291.902 72.6858C294.223 70.4048 294.542 66.9766 294.02 63.9283C293.742 62.312 293.264 60.6768 292.643 59.1592C292.535 58.8952 292.418 58.6293 292.291 58.3672C292.362 58.3653 292.434 58.335 292.479 58.2761C292.899 57.7025 293.41 57.2334 293.722 56.5914C294.008 56.0027 294.327 55.4063 294.553 54.7928C295.019 53.5374 295.247 52.1206 295.398 50.793C295.712 48.0751 295.59 45.3744 295.174 42.6736C294.466 38.0736 292.755 33.6714 290.235 29.8087C290.372 29.7366 290.503 29.6495 290.626 29.5466L290.687 29.4938L290.785 29.4049C291.504 28.7541 291.442 27.5342 290.785 26.8749L290.577 26.6669C290.315 26.4058 290.088 26.1989 289.663 25.9146C289.601 25.8727 289.537 25.8332 289.472 25.7963C289.694 25.3857 289.771 24.9056 289.617 24.3759C289.077 22.5305 286.422 22.5959 284.739 23.4006C282.877 21.7389 280.813 20.2964 278.575 19.1284C273.245 16.3478 267.219 14.4087 261.335 13.2235ZM288.884 61.8258C287.889 61.5011 286.567 62.1829 285.672 62.5931C284.538 63.1135 283.574 63.8827 282.639 64.6956C282.174 65.1021 282.09 65.7668 282.206 66.3347C282.218 66.3917 282.229 66.4506 282.242 66.5094C282.366 67.1153 283.042 67.592 283.64 67.5749C284.892 67.5407 285.488 66.4601 286.197 65.5446C286.28 65.6927 286.384 65.8295 286.514 65.9321L286.601 66.0004C286.895 66.2243 287.219 66.4032 287.608 66.386C287.883 66.3727 288.147 66.3024 288.39 66.1752C288.998 65.8542 289.266 65.0679 289.101 64.4278C288.998 64.0252 288.763 63.7099 288.455 63.4915L288.57 63.4131C288.815 63.2423 289.039 63.0622 289.213 62.7966L289.253 62.7337H289.237C289.427 62.407 289.304 61.9626 288.884 61.8258Z" fill="black"/>
<path fill-rule="evenodd" clip-rule="evenodd" d="M259.056 73.7465C256.73 71.0438 252.812 70.8556 249.568 71.5314C247.485 71.9652 245.458 72.6877 243.343 72.9555C242.355 73.0806 241.356 73.118 240.361 73.0996C239.384 73.0816 238.405 72.8846 237.431 72.9213C237.282 72.9268 237.225 73.1233 237.355 73.2033C238.691 74.024 240.491 74.2872 242.069 74.4477C242.064 74.5645 242.057 74.6785 242.041 74.7751C241.998 75.0329 241.959 75.2889 241.927 75.5483C241.855 76.1335 241.775 76.7168 241.695 77.3008C241.537 78.4502 241.488 79.6359 241.211 80.7654L241.162 80.9531C241.098 81.1905 241.084 81.4045 241.105 81.5975L241.041 81.5684L240.838 81.4702L240.705 81.4075C240.22 81.1826 239.757 81.0189 239.187 81.0735C238.753 81.1149 238.388 81.411 238.386 81.8746C238.375 83.9553 241.179 84.6244 242.783 85.0226L243.253 85.1385C245.295 85.6365 247.379 86.073 249.479 86.1774C252.849 86.3447 256.635 85.4152 258.84 82.682C260.896 80.1318 261.273 76.3234 259.056 73.7465ZM243.753 82.4884C244.107 79.3559 247.956 79.1837 249.063 81.1702C249.555 78.4012 256.824 80.9309 256.256 81.4813C254.101 83.5678 250.832 83.7556 248.021 83.3697C246.59 83.1731 245.157 82.8531 243.753 82.4884ZM248.025 74.278L248.993 74.1387L249.374 74.0862C251.773 73.7649 254.472 73.5989 256.444 75.1371C257.164 75.6986 257.57 76.4309 257.721 77.2176C255.855 76.941 253.981 76.7299 252.102 76.5542L251.59 76.5071C250.414 76.4011 249.239 76.2894 248.064 76.1722L247.23 76.0877L246.395 76.0011C246.102 75.9703 244.123 75.8691 243.751 75.9371C243.711 75.6028 243.659 74.8794 243.575 74.5541C244.981 74.6018 246.381 74.4974 247.779 74.3116L248.025 74.278ZM243.57 60.2764C242.136 61.1482 239.951 63.181 241.494 65.3422C243.31 67.2478 245.924 65.0629 247.213 64.0747C248.408 63.3089 249.75 65.2786 248.642 66.1728C239.331 73.0662 235.552 60.5044 242.845 59.2514C243.648 59.1134 243.946 60.0067 243.57 60.2764ZM241.004 63.949L240.935 63.9115L240.911 63.8974C240.871 63.8713 240.897 63.8741 240.988 63.9059L241.057 63.9305V63.9792C241.039 63.9683 241.021 63.9602 241.004 63.949ZM259.371 56.2037L259.372 56.161C259.369 54.9498 258.664 52.1846 256.92 52.1846C255.831 52.1846 255.17 54.0665 255.055 56.0065L255.051 56.0856C255.001 57.2918 255.332 59.9282 256.92 59.9282C258.525 59.9282 259.355 57.4312 259.371 56.2037ZM233.702 55.8239L233.702 55.7811C233.704 54.57 234.41 51.8047 236.153 51.8047C237.215 51.8047 237.87 53.5938 238.009 55.4813L238.018 55.6267C238.087 56.7921 237.777 59.5483 236.153 59.5483C234.548 59.5483 233.718 57.0513 233.702 55.8239ZM258.377 43.9271C256.954 43.7107 255.07 44.1217 254.406 45.5686C254.111 46.2132 254.461 46.926 255.206 46.9617C257.006 47.0479 258.621 46.6472 260.202 47.8181C260.882 48.3221 261.454 49.0199 261.934 49.716L262.115 49.9809L262.266 50.1991C262.592 50.6782 262.9 51.1987 262.852 51.7767C262.838 51.9479 263.013 52.1102 263.179 52.1034C264.215 52.0609 264.326 50.7621 264.19 49.9821C263.937 48.5345 263.236 47.1756 262.265 46.081C261.245 44.9316 259.899 44.1586 258.377 43.9271ZM238.778 45.684C237.797 45.0532 236.542 44.8109 235.393 44.9038C233.126 45.0863 229.324 47.0129 229.825 49.7811C229.979 50.6348 231.166 51.0853 231.866 50.6116C232.618 50.1024 232.801 49.311 233.361 48.6455C233.808 48.1139 234.374 47.7293 234.981 47.4017C235.578 47.0785 236.269 46.8827 236.948 46.8113L237.06 46.8006C237.469 46.7658 239.53 46.7751 239.227 47.5445C239.168 47.6951 239.392 47.8144 239.495 47.7004C240.127 47.0015 239.411 46.0908 238.778 45.684Z" fill="black"/>
<path fill-rule="evenodd" clip-rule="evenodd" d="M61.6995 221.777C50.6417 221.539 40.5757 222.207 29.9277 220.047L29.9141 219.689C27.6302 219.623 28.3862 217.489 28.8454 215.996C-14.1278 214.084 13.9017 109.342 43.6815 102.299C45.1403 102.05 46.7252 101.919 48.3321 101.903C50.4053 101.27 52.4483 101.158 54.6156 100.58C54.8236 99.8214 54.8576 99.3827 55.777 99.6074C59.0769 96.456 65.0147 93.5533 67.0183 99.7027C69.655 96.0379 71.1671 91.7529 72.2687 87.4134L72.4469 87.4426C72.9151 86.2888 73.6816 84.8289 74.614 84.588C76.0673 84.1068 78.8078 84.2178 80.3879 84.0225C83.8137 83.7849 87.7931 83.2027 91.0769 83.9885C99.2828 85.9974 95.7265 95.6844 102.38 101.991C105.433 100.727 110.219 101.073 113.144 102.578C115.027 104.087 114.083 105.788 113.753 107.382C134.763 105.489 140.354 129.858 144.689 145.922C146.429 151.267 148.156 154.89 151.118 159.016C154.967 163.84 157.128 170.156 153.185 175.245C158.815 186.478 152.703 197.036 146.237 205.515C144.971 206.873 142.917 210.652 141.061 210.91C140.557 211.37 139.753 211.937 139.186 212.348L139.87 213.245C139.952 214.074 139.957 214.965 140.524 215.704C141.069 216.235 141.652 216.779 141.668 217.572C140.799 218.58 139.677 217.454 138.853 216.954C138.537 217.575 138.582 219.05 137.57 218.993C112.463 220.714 86.7495 221.843 61.6995 221.777Z" fill="white"/>
<path fill-rule="evenodd" clip-rule="evenodd" d="M71.7782 87.4497C73.7746 90.0491 70.5217 97.9974 69.0246 100.754C79.2598 105.028 90.6817 106.891 101.615 104.464C98.7752 101.748 95.6376 93.0682 97.9752 90.0171L98.0824 90.5664C98.8749 94.6019 99.8443 98.7883 102.755 101.875C106.877 100.781 116.898 100.879 115.257 107.38C140.701 107.44 140.912 138.228 149.396 155.407C153.466 161.968 159.768 168.699 154.491 176.583C155.528 179.069 156.251 181.706 156.52 184.384C157.348 193.122 152.001 200.601 147.181 207.382C145.482 209.245 144.061 212.368 141.593 213.165C141.339 213.383 141.075 213.59 140.804 213.786C141.295 214.5 140.897 215.635 141.471 216.261L141.695 216.478C142.072 216.847 142.589 217.395 142.693 217.885L142.741 218.309C142.762 218.475 142.767 218.466 142.755 218.282L142.748 218.224C142.74 218.144 142.752 218.15 142.782 218.243L142.795 218.284C143.054 219.026 142.509 219.874 141.765 220.071C139.55 221.258 137.195 217.784 137.936 215.459C125.654 220.757 100.141 211.176 87.7996 206.426C85.441 205.479 83.2054 204.25 80.8202 203.38L80.6426 203.293C77.8899 201.938 75.1456 199.972 71.9171 200.759C58.3342 206.576 45.7037 216.261 30.6463 218.171C33.0017 222.67 26.0698 223.272 27.4586 218.247C-13.5171 212.932 12.0165 124.867 33.7831 107.857C40.7127 101.257 45.3746 102.77 53.7942 100.865C53.9877 100.156 54.6976 99.5608 55.4492 99.6617C58.4415 96.816 64.6377 94.0438 67.1945 98.6658C68.7582 96.2224 69.8455 93.5078 70.6058 90.7157C70.9088 89.6069 71.0164 88.3401 71.7782 87.4497ZM55.7374 219.421C53.5527 217.69 56.8721 214.961 58.7634 216.061C59.3475 216.776 57.3291 216.063 57.5815 217.646C57.9493 218.699 56.8514 220.099 55.7374 219.421ZM100.329 217.272C98.7748 214.346 100.14 213.042 102.475 215.321C104.606 216.929 101.747 219.542 100.329 217.272ZM78.6774 216.999C76.4852 215.821 75.9399 210.448 79.4983 213.031C82.6643 214.157 81.7945 218.184 78.6774 216.999ZM54.0933 102.418C49.7101 103.63 44.8198 103.107 40.7996 105.617C30.9651 111.808 25.3093 122.479 21.0548 132.96L20.9263 133.277C12.2932 154.532 5.38355 179.243 12.648 201.827C16.3171 212.101 25.3487 216.507 35.6283 212.938C61.4274 204.581 82.9872 184.49 110.423 181.068C110.81 177.892 109.932 174.762 108.812 171.792C91.9802 172.493 75.8432 177.942 59.714 182.329C58.7748 186.443 54.0814 191.235 51.2694 194.427C48.729 197.828 42.4449 198.852 41.6719 193.624L41.5482 193.764C39.4756 196.088 34.9285 200.116 33.5325 195.099C33.2182 192.467 34.9045 190.191 35.7338 187.797L35.6461 187.862C34.1134 189.008 27.7706 194.414 27.3293 190.814C27.3576 187.422 28.4315 184.083 30.3796 181.305C32.3368 178.739 34.7417 176.324 37.3611 174.427C37.4993 173.622 37.7506 172.845 37.9389 172.049C37.6514 169.056 38.8315 166.247 39.1409 163.316C39.8545 160.567 40.0101 155.419 42.0008 153.485C43.5289 155.113 42.015 161.32 41.9367 163.694C41.391 166.581 41.6271 169.53 40.5811 172.337C43.5315 170.723 46.7287 169.905 49.9412 169.767C50.2685 163.465 59.1896 165.666 63.3215 166.155C69.6284 163.912 96.1082 164.698 100.486 169.412C102.672 169.158 104.761 168.958 106.979 168.806C109.56 167.165 116.677 167.837 117.774 171.064C120.643 171.913 123.136 173.362 125.652 175.016C126.431 162.176 123.024 149.527 123.853 136.667C123.928 135.92 124.274 135.272 124.259 134.512C124.258 134.422 124.389 134.426 124.397 134.512C125.636 138.267 125.872 142.275 126.569 146.168C127.486 152.959 129.098 159.671 129.633 166.505C129.866 172.248 128.933 178.39 131.223 183.834C131.55 184.609 131.011 185.872 130.26 186.203C123.982 188.84 116.679 186.945 110.946 183.73C98.7311 187.641 86.7814 192.285 75.5283 198.486C77.6939 199.056 79.6416 200.324 81.6022 201.377C84.3932 202.343 87.1652 203.363 89.9534 204.338C103.752 208.51 118.193 214.11 132.773 213.261C137.255 212.496 139.27 210.576 141.931 207.146L142.37 206.576C147.124 200.427 152.557 193.916 153.354 185.939C153.535 183.351 153.289 180.775 153.139 178.196C152.499 178.851 151.812 179.463 151.147 180.097C150.223 180.977 149.044 179.868 149.496 178.824C150.476 175.859 152.202 173.061 152.5 169.922C152.551 166.97 150.616 164.344 148.906 162.1C135.603 145.728 141.406 111.351 115.058 108.014C103.816 131.656 65.4804 121.827 54.4247 103L54.0933 102.418ZM24.5658 202.07C24.6767 198.848 29.8061 203.044 29.3324 204.802C29.0451 207.233 26.0971 206.098 25.4297 204.456C25.0153 203.706 24.6664 202.926 24.5658 202.07ZM126.13 198.754C126.87 197.406 131.275 201.284 128.991 202.558C127.446 203.373 126.854 201.463 126.518 200.317C126.335 199.837 125.988 199.284 126.13 198.754ZM50.7978 200.524C48.0237 198.878 54.0963 196.661 54.3243 199.346C54.4134 201.168 51.9535 201.071 50.7978 200.524ZM102.354 193.434C103.747 191.576 103.78 198.157 102.954 198.604C102.572 199.206 101.717 199.063 101.49 198.412C100.904 196.735 101.786 195.01 102.354 193.434ZM36.4248 194.592L36.3947 194.704C36.24 195.307 36.6038 194.511 36.4636 194.628C36.4511 194.615 36.4379 194.604 36.4248 194.592ZM66.545 178.853C60.1977 171.625 48.7484 169.831 40.1925 174.119C38.9322 174.489 37.8263 175.523 36.6916 176.2C36.9765 176.097 37.2652 176.009 37.5566 175.935C33.7982 179.134 30.5989 183.516 30.0213 188.504C33.4476 186.385 36.4577 183.729 38.832 180.411C39.6127 179.049 41.8549 179.985 41.3776 181.484C39.837 185.719 37.4798 189.806 36.4928 194.182C40.1854 191.509 42.9104 187.575 44.4426 183.303C45.0867 181.471 47.954 182.216 47.3822 184.113C46.6257 186.625 45.8182 189.127 45.1005 191.65L44.907 192.339C44.6663 193.207 44.5251 194.002 45.5567 194.241C48.8813 194.455 53.338 187.109 55.3192 184.606C56.2913 183.422 57.1509 180.853 58.9864 181.228C61.2713 179.734 64.0265 179.559 66.545 178.853ZM139.73 190.411C140.109 190.082 140.574 189.854 141.077 190.022L141.126 190.04C142.648 190.572 141.468 192.654 140.163 191.922C139.72 191.589 139.239 191.31 138.71 191.128C138.393 190.801 139.54 190.654 139.73 190.411ZM68.9119 184.333C69.3598 182.234 73.5079 185.089 72.0316 186.567C70.6307 187.639 69.0315 185.676 68.9119 184.333ZM18.9416 184.626C22.8357 182.091 23.305 188.23 17.5469 186.437C17.0733 185.72 18.4656 185.018 18.9416 184.626ZM118.62 171.991C120.748 174.537 121.588 177.864 121.965 181.095C122.051 181.731 122.201 182.432 122.17 183.088C123.623 183.302 125.119 183.357 126.541 183.071C126.19 181.809 125.973 180.51 125.841 179.199C123.922 176.337 121.715 173.65 118.62 171.991ZM112.943 180.09C112.949 180.44 112.938 180.792 112.91 181.145C114.791 181.366 116.645 181.838 118.487 182.298L118.475 181.738C118.471 181.551 118.466 181.362 118.46 181.177C116.639 181.668 114.403 181.159 112.943 180.09ZM117.831 175.77C115.729 174.919 113.803 174.387 111.542 174.529C112.211 175.966 112.694 177.473 112.87 179.02C113.791 179.281 114.834 179.354 115.723 179.309C116.625 179.262 117.457 178.829 118.315 178.809C118.217 177.789 118.072 176.767 117.831 175.77ZM97.8359 176.488C99.1658 175.956 101.124 177.422 99.6653 178.57C98.6034 179.292 97.1506 178.324 96.2886 177.665C95.8135 177.12 97.4205 176.587 97.8359 176.488ZM71.4774 171.601C70.9014 173.373 67.1113 172.595 65.3749 173.549L65.5284 173.637C67.1968 174.61 69.0085 175.991 69.3188 177.747C71.5278 176.884 73.7547 176.068 75.9942 175.296C74.6671 173.814 73.1422 172.592 71.4774 171.601ZM97.2203 169.864C87.2504 166.29 76.3843 166.394 65.9257 166.727L66.2007 166.81C70.7095 168.178 75.9889 170.303 78.339 174.509C84.4996 172.5 90.8034 170.836 97.2203 169.864ZM116.631 172.687C115.097 169.97 112.11 168.755 109.188 168.96L108.728 169.035C109.046 169.146 109.345 169.304 109.614 169.528C110.094 169.928 110.086 170.807 109.661 171.246C110.199 172.043 110.705 172.875 111.151 173.734C112.762 172.61 114.694 172.448 116.631 172.687ZM143.566 172.746C140.076 174.794 137.55 165.204 141.948 167.264L142.262 167.6C143.536 168.975 145.506 171.3 143.566 172.746ZM61.7297 168.256C60.615 169.16 59.3171 169.816 58.1883 170.712C60.0441 171.182 61.8682 171.805 63.5941 172.626C65.0004 171.42 66.6916 170.652 68.4823 170.111C66.3346 169.222 64.0327 168.628 61.7297 168.256ZM16.0293 168.458L16.0457 168.414C16.586 166.897 19.847 164.646 21.467 165.235C21.5427 165.232 21.6176 165.306 21.6132 165.382L21.6397 165.57C21.7309 166.237 21.7779 166.89 21.3376 167.485C20.5493 168.756 19.7965 170.339 18.2802 170.834C16.786 171.308 15.506 169.891 16.0293 168.458ZM58.0132 167.825L57.5151 167.799C55.2277 167.671 51.934 167.463 50.8169 169.744C52.746 169.731 54.7083 169.943 56.6543 170.357C56.9455 169.48 57.4234 168.598 58.0132 167.825ZM70.5074 158.132C70.1593 157.467 71.4505 158.196 71.7505 158.093C72.3078 158.128 72.811 158.242 73.1263 158.743C73.6314 159.547 72.6501 160.409 71.8771 159.992C71.1312 159.58 71.3105 158.505 70.5074 158.132ZM114.332 154.414L114.38 154.409C115.15 154.323 118.453 153.571 118.445 154.388L118.382 154.477C117.343 155.957 115.989 158.871 113.875 157.832C112.517 157.059 112.79 154.748 114.332 154.414ZM91.3266 154.293C91.9364 153.169 93.2429 155.779 93.6315 156.243C94.1845 157.481 92.589 158.447 91.8021 157.312C91.3135 156.427 91.0962 155.287 91.3266 154.293ZM34.1119 151.714C34.9879 151.271 37.2033 151.231 36.5968 152.728C35.4151 154.295 33.2474 153.537 31.9236 152.533C31.2468 151.754 33.6911 152.071 34.1119 151.714ZM55.4082 145.901C55.3288 144.778 56.5806 144.377 57.4244 144.744C58.9303 145.398 60.0973 147.805 59.6208 149.361C59.2371 150.905 56.9001 151.247 56.1574 149.814C55.7304 148.491 55.6729 147.227 55.4082 145.901ZM132.974 147.995C134.703 147.629 136.517 146.47 138.293 146.797C138.847 147.005 139.048 147.635 138.635 148.092C138.402 149.147 132 148.912 132.974 147.995ZM82.9683 143.969C83.7044 142.634 85.396 141.217 87.0192 141.333C88.0148 141.3 88.4038 142.732 87.5267 143.207L87.4976 143.219C86.9469 143.439 82.7706 144.511 82.9683 143.969ZM105.955 141.817C103.464 141.459 103.479 135.468 104.963 136.638C105.468 138.107 106.752 138.983 107.486 140.286C107.857 141.179 106.785 142.069 105.955 141.817ZM30.3249 140.491C31.3834 140.653 36.8799 137.31 35.8726 139.985C35.2173 140.735 34.3876 140.753 33.4575 140.823L33.4321 140.82C32.9552 140.789 29.4882 141.201 30.3249 140.491ZM68.34 135.05C67.2402 134.922 63.2398 126.564 65.1964 127.091L65.4949 127.286C67.6628 128.717 70.0531 130.547 71.0204 132.989C71.4015 134.445 69.7009 135.982 68.34 135.05ZM92.946 131.611C93.1044 131.54 93.2442 131.765 93.0851 131.85C92.4057 132.21 91.6678 132.974 91.2409 133.618C89.7787 135.447 88.0491 132.215 90.2963 131.972C91.1161 132.031 92.1939 131.952 92.946 131.611ZM46.2867 121.494C48.3155 120.972 49.2964 123.647 47.6605 124.753C46.8423 125.454 39.156 127.65 38.6958 126.769C39.66 125.201 44.4777 122.044 46.2867 121.494ZM122.493 121.869C128.109 121.409 128.26 120.381 124.293 124.961C121.951 127.017 119.578 122.806 122.493 121.869ZM96.2045 108.179C94.2566 108.344 92.3006 108.394 90.3477 108.331C90.6487 108.975 90.3878 109.913 89.5331 109.783C89.1311 112.391 88.9483 115.041 88.4408 117.632C88.3076 118.238 88.1189 118.826 87.9385 119.417C91.6572 119.691 95.4313 119.537 99.0557 118.617C97.7094 115.244 97.1251 111.674 96.2045 108.179ZM80.4941 107.067C80.4765 107.339 80.3991 107.609 80.2714 107.837C78.5892 110.751 77.1124 113.792 75.3343 116.644C79.1716 118.066 83.2041 118.993 87.2728 119.359C86.6581 115.648 87.2036 111.863 87.0762 108.121C84.8632 107.909 82.6636 107.555 80.4941 107.067ZM105.136 106.637C103.189 107.16 101.209 107.553 99.2131 107.834C99.221 108.148 99.0403 108.441 98.7613 108.558C99.1985 111.816 100.06 115.021 100.073 118.342C104.232 117.323 107.521 114.492 110.249 111.299L109.629 110.847C107.971 109.634 106.298 108.339 105.136 106.637ZM66.7947 99.2727C64.3818 97.792 61.0414 98.4228 59.0873 100.351C58.2214 101.123 57.4697 102.167 56.4836 102.774C56.3607 102.849 56.2347 102.901 56.1081 102.933C56.7873 104.217 57.8254 105.449 58.7029 106.508C63.4082 110.616 68.7051 114.067 74.5268 116.337C74.7651 112.844 75.9736 109.452 77.3549 106.243C76.0673 105.855 74.798 105.409 73.5514 104.903C73.3926 105.743 72.6053 106.391 72.1074 107.043C70.9777 108.366 70.2248 109.984 69.149 111.33C67.9507 112.586 65.9148 110.984 66.776 109.499C68.1637 107.473 69.9571 105.639 72.0406 104.259C70.6672 103.643 69.3576 102.918 68.0909 102.107C68.0373 102.162 67.982 102.216 67.9259 102.267C67.8412 101.744 67.1216 101.882 66.7389 101.967C66.4662 101.737 66.0962 102.027 65.7925 102.103C65.748 102.022 65.7107 101.937 65.6843 101.847C64.1246 103.388 62.9515 105.827 60.9391 106.747C60.1101 106.976 59.1488 106.153 59.4648 105.273C59.9971 103.923 64.3155 101.056 65.7419 100.298C65.4298 99.8441 65.6795 99.6198 66.1855 99.6872C66.2724 99.5784 66.4056 99.5448 66.5443 99.637C66.6323 99.5187 66.7148 99.3963 66.7947 99.2727ZM35.5119 112.842C36.4899 112.847 37.6447 112.44 38.5227 113.004C39.814 114.482 36.614 114.99 35.3598 113.21C35.2378 113.075 35.3179 112.842 35.5119 112.842ZM107.668 103.738C107.947 104.067 108.042 104.548 107.94 104.98C109.163 106.848 109.836 108.963 110.451 111.064L110.623 110.85C113.411 107.366 114.992 104.207 108.865 103.863C108.466 103.807 108.067 103.765 107.668 103.738ZM49.2813 108.64C44.2199 104.944 55.1107 106.963 51.9731 109.223C51.0076 109.573 50.082 109.183 49.2813 108.64Z" fill="black"/>
<path fill-rule="evenodd" clip-rule="evenodd" d="M118.829 38.3569C119.029 36.4999 116.851 31.5458 116.904 32.5507C113.413 27.1771 106.599 25.0639 100.721 23.29C88.2418 19.1777 78.4972 24.1442 69.7292 32.9463C64.5528 37.773 59.6274 43.1646 57.0289 49.8462C51.917 62.5925 59.5795 77.1267 71.2321 83.2157C72.1725 83.7238 73.1971 84.2061 74.0926 84.8198C78.9096 87.5978 84.5661 88.5589 89.9338 89.7681C99.9757 92.0593 112.587 90.9673 118.505 81.4237C122.519 74.6505 121.453 66.4396 121.139 58.9229C120.667 52.337 119.838 44.8945 118.829 38.3569Z" fill="white"/>
<path fill-rule="evenodd" clip-rule="evenodd" d="M65.1526 19.561C71.6585 13.4899 81.2743 10.5474 90.0662 11.062C94.8279 11.3408 99.4171 12.5318 103.72 14.5781C105.066 15.218 106.378 15.967 107.587 16.849C108.403 17.229 109.2 17.6402 109.973 18.0873C113.842 20.3249 116.833 23.714 118.748 27.7343C119.662 29.6531 120.383 31.6765 120.791 33.7614L120.857 34.1046C121.065 35.1507 121.477 36.5291 120.956 37.5081C120.611 38.1572 119.887 38.5664 119.202 38.5113C119.35 39.1129 119.529 39.7143 119.643 40.3197L119.953 41.9704C120.004 42.2455 120.055 42.5206 120.106 42.7957C120.405 44.4353 120.681 46.073 120.901 47.7254C121.362 51.1663 121.779 54.6143 122.147 58.0678C122.41 60.5377 122.657 63.0101 122.897 65.4819L123.04 66.9648C123.286 69.5177 123.479 72.0929 123.311 74.6569C123.06 78.5031 121.874 82.0121 119.574 84.8669C119.794 85.393 119.867 85.9854 120.032 86.6396C120.261 87.5449 120.558 88.4313 120.875 89.31C121.023 89.6554 121.171 90.0009 121.318 90.3472L121.704 91.2644L122.005 91.8658C122.332 92.52 122.647 93.1837 122.848 93.8609C124.148 94.5536 125.209 95.6837 125.261 97.2322C125.307 98.6316 124.579 100.114 123.35 100.827C122.137 101.532 120.889 101.254 119.727 100.716C118.715 101.01 117.631 101.047 116.628 100.733C115.856 101.431 114.86 101.913 113.756 102.043C112.091 102.24 110.511 101.775 108.984 101.163L108.878 101.12C108.83 101.102 108.782 101.082 108.736 101.062C106.98 100.977 105.231 100.284 103.985 99.0553C103.579 98.6573 103.228 98.2024 102.945 97.6926C101.918 95.8382 101.758 93.5621 102.769 91.7227C102.552 91.7319 102.333 91.7409 102.117 91.7466C99.2257 91.8288 96.3297 91.6816 93.4462 91.4919L92.7663 91.4458C90.9004 91.3117 88.1486 90.996 88.0962 88.6874C88.0887 88.3921 88.3939 88.1702 88.6731 88.249C89.7332 88.5478 90.775 89.0175 91.8737 89.1862C93.3104 89.4081 94.7985 89.432 96.2501 89.5127L96.6675 89.5359C99.5946 89.6957 102.627 89.7932 105.506 89.2137C107.656 88.7827 109.896 87.9976 111.865 87.0255C113.756 86.0903 115.474 84.867 116.859 83.2696C119.911 79.7555 120.315 74.7981 120.166 70.3523C119.986 65.0426 119.361 59.7405 119.009 54.4383L118.849 52.0562C118.718 50.0698 118.597 48.0806 118.548 46.0933C118.511 44.6426 118.534 43.1882 118.542 41.7374C118.545 41.013 118.536 40.2849 118.553 39.5604C118.562 39.1533 118.61 38.7553 118.645 38.3571C118.483 38.2729 118.333 38.1554 118.197 37.9996C118.09 37.8768 118.007 37.7465 117.95 37.6145C117.265 37.4144 116.947 37.1485 116.503 36.5452C116.128 36.0372 115.703 35.5677 115.25 35.1275C114.283 34.1921 113.179 33.4273 112.012 32.7614C109.6 31.3842 106.958 30.4635 104.294 29.7079C100.215 28.5524 95.9782 27.9582 91.8388 27.03C90.6978 28.6183 89.4889 30.1591 88.2248 31.6502C84.28 36.3013 79.7567 40.4479 74.9098 44.1456C73.9233 44.8993 72.9237 45.6421 71.9097 46.3627C70.5737 48.396 69.2237 50.4196 67.8535 52.4296L67.265 53.2901L67.2558 53.3066C67.175 53.4295 67.0976 53.5524 67.0206 53.6753C66.8571 53.9357 66.6734 54.187 66.4786 54.4309C66.3518 54.616 66.2232 54.8012 66.0928 54.9866C66.3427 55.1203 66.5705 55.2709 66.7487 55.4378C67.1125 55.7806 67.0517 56.3255 66.7487 56.674C65.7713 57.8001 64.2243 56.3328 63.0998 55.9422C61.8817 56.3125 60.8657 57.7597 60.3604 58.8655C59.6329 60.4595 59.3407 62.3814 59.6696 64.1072C59.9707 65.6845 60.783 67.0474 62.1334 67.902C62.1812 67.9312 62.2324 67.9626 62.2822 67.9899C62.2841 67.9937 62.2841 67.9937 62.2859 67.9917C62.3318 68.0211 62.3796 68.0488 62.4274 68.0744C63.0613 68.4229 63.7576 68.6283 64.4795 68.6777C64.8928 68.7072 65.3248 68.685 65.7382 68.7347C66.1626 68.784 66.5117 68.9786 66.9196 69.0813C67.3697 69.1967 67.66 69.8003 67.3769 70.2054C67.2374 70.4053 67.1051 70.5963 66.9635 70.7668C67.4285 71.3134 67.8325 71.9168 68.1983 72.4907C68.6979 73.2775 69.1409 74.1121 69.5451 74.9631C69.918 75.4528 70.2745 75.9517 70.6199 76.4616C72.5766 79.3557 74.074 82.58 74.9945 85.9489C75.9058 89.2814 76.4753 93.0247 75.632 96.4271C74.8548 99.556 72.5858 102.147 69.2272 102.314C68.5263 102.349 67.8369 102.271 67.1887 102.093C65.7648 102.971 64.0003 103.413 62.4211 103.464C61.1435 103.506 59.7449 103.237 58.7015 102.466C57.4638 103.004 56.1211 103.309 54.9535 103.379C53.647 103.456 52.2796 103.101 51.2146 102.397C50.2011 103.264 49.1076 103.995 47.865 104.497C45.7282 105.359 43.1854 105.252 41.2287 103.963C39.2683 102.672 38.2707 100.354 38.8696 98.0537C39.4208 95.9337 41.1534 94.3784 42.7812 93.0394L43.1028 92.7763C44.713 91.4643 46.3391 90.1946 47.3726 88.3462C48.4695 86.3856 48.87 84.1077 48.9784 81.8885C49.2136 77.0026 48.2178 72.1607 47.9146 67.3005C47.6023 62.2807 47.7768 57.246 48.4621 52.2629C49.7942 42.5829 53.2997 33.0935 59.642 25.5481C60.5596 24.4563 61.5418 23.4156 62.5769 22.4293C63.3681 21.3963 64.2232 20.4281 65.1526 19.561ZM149.517 74.8311C149.552 74.8329 149.585 74.8347 149.616 74.8476C149.637 74.8564 149.655 74.8704 149.671 74.8859L149.826 75.0401C149.881 75.0952 149.877 75.1795 149.826 75.2346C149.78 75.2846 149.699 75.2861 149.646 75.2474L149.631 75.2346L149.471 75.0747C149.453 75.0558 149.438 75.0353 149.431 75.009C149.423 74.9833 149.423 74.9539 149.421 74.9264C149.419 74.8769 149.467 74.8311 149.517 74.8311ZM63.3147 59.8469C64.7882 59.401 66.5557 60.4613 67.4339 61.5801C67.8749 62.1413 67.9998 62.9097 67.4339 63.4618C66.9526 63.9313 66.0119 64.0173 65.547 63.4618C65.0197 62.829 64.5898 61.9522 63.8365 61.547C63.0189 61.1069 61.9239 61.2169 61.731 62.2896C61.6979 62.4714 61.437 62.4107 61.426 62.2476C61.3543 61.1619 62.3079 60.1493 63.3147 59.8469Z" fill="black"/>
<path fill-rule="evenodd" clip-rule="evenodd" d="M102.916 73.9211C103.547 72.8088 105.428 72.9895 105.715 74.2869C106.298 76.9168 103.162 79.3453 100.781 79.4059C98.4136 79.466 95.7578 77.4514 96.1004 74.9068C96.1851 74.2773 97.0259 74.3537 97.3125 74.7484L97.4237 74.8998C98.2022 75.9456 99.2294 77.0281 100.674 76.7731C101.273 76.6676 101.817 76.2936 102.179 75.812C102.615 75.2309 102.567 74.5369 102.916 73.9211ZM87.8653 54.6808C88.1861 54.5924 88.5099 54.6266 88.7941 54.7475C89.4287 54.8638 89.9588 55.3929 90.1451 55.997C90.1598 56.0493 90.1762 56.101 90.1942 56.1521L90.2226 56.2284L90.1465 56.0347C90.1816 56.2254 90.3369 56.4259 90.3927 56.6173C90.4614 56.8527 90.4782 57.12 90.455 57.3791C90.6567 57.3811 90.8585 57.3879 91.0599 57.4053L91.2544 57.4228C92.3427 57.5239 93.5374 57.7094 94.1825 58.6497C94.5448 59.1781 94.2047 60.1295 93.5391 60.2313C92.5144 60.388 91.6318 59.821 90.6106 59.7075C89.6453 59.6 88.6352 59.6615 87.6824 59.8359C85.7152 60.1955 83.9075 60.9929 81.9905 61.4932L81.7295 61.5594L81.7299 61.5582C81.4014 61.6375 81.0284 61.1808 81.3534 60.9136C82.8892 59.652 84.8555 58.6295 86.7926 58.0069C86.5103 57.558 86.4231 56.9668 86.616 56.4848C86.6459 56.385 86.6829 56.2879 86.722 56.1911L86.8036 55.9919C86.8115 55.898 86.8295 55.8052 86.8556 55.7143L86.8598 55.6865L86.8622 55.6882C87.0064 55.2195 87.3831 54.8138 87.8653 54.6808ZM107.459 54.7533C107.879 54.3331 108.469 54.3952 108.908 54.7259L108.966 54.7715C109.379 54.9551 109.721 55.3562 109.946 55.7278C110.179 56.1139 110.334 56.507 110.34 56.932C111.356 56.9353 112.33 57.2403 113.077 58.0612C113.318 58.3261 113.483 58.7348 113.35 59.094L113.271 59.3076C113.02 59.986 111.893 60.3765 111.51 59.5788L111.493 59.5399C111.086 58.5926 109.523 58.692 108.693 58.7888C108.114 58.8566 107.543 59.0004 106.984 59.1616C106.787 59.2183 106.592 59.28 106.397 59.3429L106.202 59.4061C106.098 59.4397 105.556 59.7339 105.893 59.6642C105.984 59.6455 106.052 59.7774 105.96 59.8217C105.558 60.0137 105.129 59.6314 105.156 59.2C105.203 58.4511 106.392 58.0405 106.964 57.7823L106.998 57.7667C107.218 57.6653 107.448 57.5681 107.685 57.4779C107.551 57.2794 107.441 57.059 107.349 56.8223C107.263 56.5989 107.205 56.3817 107.173 56.1442C107.142 56.0281 107.142 55.9119 107.173 55.7956L107.178 55.7624C107.162 55.6856 107.154 55.6062 107.155 55.5263L107.152 55.4952H107.155C107.166 55.2154 107.277 54.9351 107.459 54.7533ZM100.748 62.7281C102.362 63.2267 105.024 64.585 104.183 66.6816C103.009 68.607 99.8946 67.192 98.3856 66.5699C97.0299 66.1208 96.324 68.0208 97.6349 68.5935C108.467 72.8789 108.428 61.5688 101.141 61.7348C100.338 61.753 100.313 62.5624 100.748 62.7281ZM86.4161 47.9806L86.6913 47.9003C88.1217 47.486 89.5818 46.7706 90.8517 47.8869C91.3503 48.3253 91.453 49.2362 91.0962 49.783C90.2834 51.0289 89.078 50.8385 87.7652 50.9447C86.7657 51.0255 85.7811 51.3191 84.8482 51.6861C84.0857 51.9861 83.3785 52.4085 82.7108 52.8796C82.0549 53.3427 81.6068 54.0668 80.934 54.4837C80.6874 54.6366 80.4026 54.4793 80.3141 54.2314C80.0003 53.3523 80.5305 52.2571 80.9792 51.508C81.5269 50.5941 82.3588 49.8467 83.2534 49.2812C84.233 48.6619 85.3162 48.3042 86.4161 47.9806ZM107.258 47.0347C109.676 47.0339 112.002 48.3786 113.354 50.3499C113.814 51.0196 113.477 52.0117 112.817 52.3974C112.077 52.8302 111.286 52.5185 110.799 51.8983L110.77 51.8607C109.994 50.8279 108.995 50.0146 107.809 49.4851C107.231 49.2266 106.592 49.0169 105.966 48.9105L105.764 48.8759C105.481 48.8284 105.152 48.7831 104.896 48.8275C104.759 48.8455 104.633 48.8909 104.517 48.96C104.573 49.082 104.428 49.229 104.295 49.1558C103.694 48.8258 103.768 48.2372 104.264 47.7797C104.966 47.1324 106.351 47.0349 107.258 47.0347Z" fill="black"/>
</svg>
