<svg width="318" height="220" viewBox="0 0 318 231" fill="none" xmlns="http://www.w3.org/2000/svg">
<path fill-rule="evenodd" clip-rule="evenodd" d="M81.4684 91.9617C76.7696 88.3837 64.9731 86.7746 59.9581 90.2198C55.0049 93.6794 54.4649 99.274 52.1567 104.421C49.9789 103.394 46.3825 104.865 45.7511 106.885C44.968 107.838 44.9329 110.516 44.3928 111.797C20.8957 115.537 17.3284 133.856 14.5002 154.654C10.7587 175.758 2.26508 196.815 5.95233 218.532C5.47189 219.227 5.09309 219.903 4.74286 220.705C3.90359 222.133 4.98459 224.154 6.67737 224.076C8.86848 223.884 11.0379 223.621 13.2393 223.539C19.3419 223.327 25.45 223.352 31.5549 223.43L32.3873 223.441C63.1541 223.824 93.9192 224.578 124.687 224.779C125.804 224.78 126.35 223.779 126.201 222.792C125.901 220.803 125.622 218.814 125.332 216.825C132.609 218.747 140.346 219.231 147.603 217.027C148.11 216.51 146.42 216.79 146.152 216.712C152.83 212.148 150.836 202.534 150.244 195.61C146.565 171.882 145.268 145.63 131.055 125.383C124.906 117.12 115.892 110.578 105.533 109.106L105.246 109.067C102.217 108.663 98.8411 108.533 96.1929 106.885C93.2145 104.508 91.9452 100.114 88.8118 100.073C87.7771 100.059 86.3696 101.368 84.8549 102.257C84.7419 100.302 83.6883 98.6522 83.4557 97.1364L83.4368 97.0068C83.1941 95.2395 83.5265 93.6496 81.4684 91.9617ZM30.9709 155.281C37.5743 150.693 54.632 152.998 55.0225 153.255C55.8823 153.821 56.2526 153.871 56.7176 154.605C57.1767 154.666 57.6355 154.729 58.0938 154.794C59.0134 155.095 58.332 156.226 57.2698 155.822C57.9087 158.577 56.0286 160.537 55.2801 163.26C55.0371 164.145 55.2713 165.735 55.2801 166.639C55.2075 167.791 53.9336 169.152 54.146 170.308C54.9007 174.418 58.9967 178.426 57.2698 182.412C56.1258 184.663 52.6851 185.81 50.3974 186.576C45.6579 188.395 37.3998 186.507 34.646 182.412C33.1772 180.227 31.4754 174.717 30.5997 173.008L30.4055 170.297C29.9268 163.557 29.501 156.302 30.9709 155.281Z" fill="white"/>
<path fill-rule="evenodd" clip-rule="evenodd" d="M89.9621 99.676C89.5062 99.2722 88.8316 99.7795 89.1213 100.325C89.7723 101.551 90.4401 102.712 91.3138 103.795C91.8435 104.452 92.411 105.074 92.986 105.688C91.5102 106.965 90.2446 108.55 89.0494 110.035C87.5211 111.935 86.0761 113.915 84.3605 115.654C82.6685 117.368 80.7977 118.567 78.5356 119.366L78.0788 119.525C75.8063 120.323 73.3776 121.4 72.0967 123.552C71.8441 123.976 72.3527 124.5 72.7802 124.235C75.006 122.857 77.6212 122.58 80.044 121.669C82.3843 120.79 84.4245 119.436 86.2271 117.708C88.0267 115.983 89.5376 114.021 91.1137 112.1C92.6723 110.2 94.3504 108.578 96.194 106.971C99.0389 108.885 102.286 109.717 105.588 110.535L105.949 110.625C109.255 111.443 112.543 112.394 115.644 113.819C118.379 115.075 121.069 116.576 123.296 118.621C125.661 120.791 127.501 123.562 129.185 126.273C132.953 132.336 135.602 138.98 137.934 145.703C140.359 152.697 142.388 159.831 144.026 167.05C144.859 170.722 145.535 174.42 146.091 178.143C146.359 179.937 146.597 181.734 146.806 183.535C147.029 185.459 147.08 187.438 147.67 189.287C147.923 190.08 148.52 190.409 149.118 190.381L149.239 191.9C149.4 193.925 149.551 195.95 149.601 197.988C149.685 201.375 149.647 204.754 149.404 208.134L149.369 208.595C149.178 211.063 148.75 213.835 146.894 215.641C144.973 217.513 142.018 218.101 139.428 218.135C133.397 218.213 127.591 215.363 122.253 212.863C116.756 210.288 111.41 207.43 106.191 204.33C103.533 202.752 100.905 201.121 98.3091 199.442C97.0355 198.618 95.7708 197.78 94.5157 196.929C93.7967 196.441 93.1155 195.906 92.3836 195.474C92.7422 195.14 92.9023 194.615 92.6019 194.156C94.7176 192.32 95.5982 189.043 95.7012 186.391C95.7844 184.25 95.4693 182.116 95.2207 179.996C95.0953 178.927 94.9403 177.859 94.7795 176.795C94.7159 176.374 94.6674 175.925 94.5931 175.481C100.306 178.62 106.179 181.416 112.208 183.9C115.298 185.173 118.428 186.318 121.601 187.367L122.244 187.578C125.25 188.563 128.328 189.492 131.436 190.055C131.602 190.085 131.737 189.839 131.56 189.761C128.531 188.425 125.397 187.298 122.323 186.067L121.818 185.861C121.876 185.858 121.936 185.85 121.999 185.835C123.802 185.4 125.591 184.729 127.359 184.164C129 183.64 130.844 183.311 132.378 182.52C132.496 182.459 132.43 182.295 132.315 182.287C130.591 182.168 128.719 182.67 127.029 182.966L126.394 183.077C125.33 183.265 124.243 183.466 123.184 183.729C123.146 183.375 122.947 183.019 122.666 182.81C119.563 180.513 119.878 175.873 119.547 172.451L119.301 169.911C118.868 165.465 118.41 161.02 117.715 156.608C117.677 156.372 117.313 156.44 117.311 156.662C117.275 162.132 117.688 167.576 117.895 173.037L117.927 173.933C118.042 177.303 118.131 180.802 120.254 183.395C119.957 183.221 119.556 183.221 119.315 183.507C119.02 183.859 118.849 184.254 118.855 184.641C116.937 183.837 115.028 183.012 113.127 182.17C107.019 179.464 101.038 176.435 95.2152 173.158C94.5886 172.805 93.993 173.083 93.6831 173.548L93.6384 173.541C93.6309 173.54 93.6233 173.539 93.6155 173.539L93.5712 173.537C93.5694 173.537 93.5677 173.538 93.5662 173.538C92.7466 173.087 91.63 173.408 90.9266 174.065C90.9059 174.085 90.8882 174.106 90.8697 174.127C89.9793 173.727 89.1478 173.187 88.3933 172.504C86.8492 171.104 85.5413 169.374 84.4011 167.638C82.3013 164.442 80.5177 160.888 77.6813 158.258C75.3768 156.12 72.5196 154.789 69.5222 153.954C69.5348 153.866 69.5013 153.773 69.4407 153.711C69.2867 153.553 69.1769 153.499 68.978 153.594C68.9622 153.602 68.9527 153.613 68.9462 153.624L68.6537 153.125C68.494 152.853 68.3301 152.58 68.2733 152.508C67.933 152.08 67.5827 151.655 67.2271 151.238C66.6243 150.534 65.9373 149.838 65.1419 149.349C63.4002 148.279 61.5692 148.885 59.7786 149.47C58.6966 149.823 57.6183 150.188 56.5383 150.547L56.4268 150.583C55.6215 150.842 54.6791 151.068 54.319 151.921C54.1764 152.259 54.1543 152.61 54.2208 152.95C46.5717 151.004 38.0761 151.898 30.6119 154.181C30.3254 154.269 30.0393 154.505 29.979 154.814C29.1237 159.2 28.7428 163.698 29.1298 168.158C29.4637 172.009 30.3168 175.782 31.9245 179.307L32.0159 179.506C33.5268 182.773 35.9215 186.8 39.5787 187.824C41.7869 188.442 44.2293 188.078 46.4815 187.965C48.6703 187.855 50.9077 187.839 53.0758 187.494C55.0067 187.188 56.6985 186.322 57.8918 184.752C58.9212 183.398 59.4634 181.761 59.9074 180.132C60.1107 180.197 60.3127 180.266 60.5114 180.344C61.3503 180.671 62.0611 181.2 62.7037 181.822C64.0607 183.136 65.1133 184.733 66.5331 185.987C67.8184 187.122 69.2829 188.005 70.8539 188.683C74.1091 190.09 77.6012 190.652 81.0445 191.398L81.2847 191.45C83.8768 192.019 86.5227 192.717 88.8107 194.067C88.8554 194.464 89.0365 194.838 89.3265 195.082C88.923 195.461 88.7521 196.062 89.1067 196.625C90.0972 198.197 91.8035 199.091 93.3352 200.096L93.4349 200.162C94.9417 201.161 96.4616 202.14 97.9939 203.099C101.109 205.05 104.289 206.893 107.514 208.655C112.701 211.488 118 214.161 123.395 216.586C123.071 218.179 123.189 219.822 122.946 221.425L122.908 221.654C122.804 222.249 122.945 222.747 123.355 223.136L123.398 223.176L123.397 223.17L123.436 223.205L123.449 223.216L123.444 223.213C123.492 223.256 123.54 223.296 123.59 223.331L123.653 223.372C124.048 223.612 124.557 223.609 124.961 223.397L125.007 223.372L125.085 223.327C125.619 223.02 125.987 222.259 125.766 221.654C125.221 220.168 125.015 218.582 124.512 217.085L124.911 217.264L125.437 217.493C131.124 219.952 137.442 222.023 143.638 220.347C146.376 219.606 148.935 218.038 150.305 215.484C151.653 212.97 151.844 210.051 151.916 207.255C152.004 203.804 151.819 200.3 151.364 196.878C151.058 194.581 150.689 192.241 150.119 189.968C150.412 189.709 150.627 189.338 150.684 188.879C150.953 186.708 150.483 184.451 150.194 182.291C149.913 180.183 149.602 178.078 149.25 175.98C148.54 171.743 147.715 167.515 146.754 163.328C145.044 155.875 142.787 148.555 140.068 141.411L139.83 140.788C137.319 134.257 134.41 127.866 130.361 122.129C128.424 119.384 126.376 116.895 123.639 114.917C121.074 113.064 118.182 111.73 115.197 110.71C112.208 109.689 109.137 109.005 106.011 108.58C102.837 108.148 99.4859 107.883 96.5246 106.581C96.8992 105.909 96.5777 105.003 95.9473 104.586C93.8257 103.184 91.8637 101.361 89.9621 99.676ZM22.0443 160.63C21.9554 160.495 21.7443 160.58 21.7833 160.74C22.8152 164.967 23.7839 169.203 24.4164 173.512C25.5582 181.287 25.3482 189.165 25.2549 196.998L25.2501 197.403C25.2022 201.622 25.1356 205.842 24.996 210.06C24.9256 212.191 24.7863 214.344 24.862 216.476C24.9033 217.633 25.2117 218.728 25.321 219.871C25.4167 220.87 25.3314 221.885 25.2836 222.886C25.2517 223.551 26.2339 223.523 26.3007 222.886L26.3861 222.062C26.4971 221.019 26.6343 219.982 26.976 218.984C27.387 217.784 27.5842 216.605 27.7268 215.344C27.9451 213.413 28.0423 211.462 28.1265 209.517L28.1842 208.171C28.5361 200.043 28.5238 191.876 27.954 183.755L27.9123 183.176C27.3482 175.5 26.3692 167.207 22.0443 160.63ZM44.0401 112.253C44.3096 112.142 44.2152 111.735 43.9167 111.806L43.3739 111.935C39.3967 112.888 35.4916 113.92 31.7793 115.693C28.0646 117.467 24.9196 120.114 22.4207 123.371C17.563 129.7 15.5443 137.392 13.9507 145.077C12.1797 153.616 10.5673 162.187 8.78084 170.723L8.4491 172.313C6.7961 180.264 5.23543 188.219 4.08548 196.264L4.00287 196.848C2.84322 205.121 2.14571 213.68 3.41107 221.975C3.66138 223.616 6.39214 223.207 6.28534 221.586C5.97697 216.899 5.75618 212.236 5.96956 207.539C6.18314 202.84 6.62379 198.163 7.28069 193.505C7.8335 189.586 8.65755 185.715 9.38681 181.827L9.50111 181.213C10.1118 177.906 10.7413 174.602 11.3694 171.298L12.3081 166.352C13.715 158.944 15.1494 151.531 16.7702 144.17L16.8664 143.737C18.4525 136.656 20.791 129.238 25.5487 123.615C30.377 117.908 37.2887 115.034 44.0401 112.253ZM61.5841 187.365C61.4679 187.106 61.0617 187.134 60.9369 187.365C60.4476 188.268 60.3932 189.42 60.3008 190.439L60.291 190.544C60.1734 191.787 60.0693 193.035 60.0055 194.283C59.8846 196.65 59.8268 199.015 59.8342 201.386C59.8418 203.816 59.8907 206.242 60.0217 208.668L60.0572 209.318C60.1768 211.427 60.3773 213.778 61.3791 215.621C61.7432 216.291 62.7336 216.094 62.9445 215.417C63.6354 213.198 63.2806 210.567 63.1034 208.295L62.9658 206.522C62.8295 204.749 62.6996 202.975 62.5965 201.199C62.4553 198.77 62.3388 196.339 62.2267 193.909C62.1903 193.119 62.1509 192.33 62.1093 191.541L62.0453 190.357C61.9906 189.367 61.9952 188.28 61.5841 187.365ZM139.275 190.509L138.969 190.214C138.03 189.295 136.843 187.88 135.455 187.967C134.902 188.002 134.549 188.462 134.664 189.007C134.909 190.171 136.097 190.775 136.951 191.486C137.888 192.264 138.771 193.096 139.651 193.936C140.433 194.681 141.185 195.447 141.918 196.237L142.192 196.534C142.455 196.821 144.328 198.515 144.125 198.954L144.114 198.974C144.058 199.058 144.152 199.174 144.245 199.144C145.054 198.889 145.004 198.196 144.698 197.493C144.11 196.144 143.082 194.896 142.184 193.744C141.288 192.595 140.318 191.524 139.275 190.509ZM58.654 156.674C59.2793 155.196 61.5827 155.227 62.8904 155.316C66.1834 155.538 69.7464 156.371 72.6765 157.91C75.7142 159.506 77.7604 162.063 79.5913 164.89L79.677 165.023C81.4615 167.797 83.1801 171.08 85.9745 172.988C87.3977 173.96 89.0597 174.847 90.7865 175.231C90.9051 175.439 91.0972 175.605 91.349 175.664L91.4661 175.691C91.9579 175.8 92.722 175.92 93.3819 175.848C93.3776 176.171 93.381 176.491 93.3728 176.797C93.3496 177.674 93.3397 178.554 93.3397 179.431C93.3393 181.269 93.4381 183.111 93.3614 184.948C93.2934 186.574 93.0639 188.272 92.2834 189.725C91.711 190.791 90.9555 191.496 90.0436 192.17C87.8001 190.802 85.2633 189.969 82.6887 189.342C79.5749 188.585 76.3868 188.079 73.3438 187.051C71.8793 186.557 70.4713 185.909 69.1955 185.03C67.8416 184.096 66.8074 182.833 65.7434 181.598L65.577 181.406C64.4911 180.16 63.3062 178.969 61.7715 178.293C60.4499 177.712 58.708 177.608 57.5524 176.708C56.9483 176.237 56.8976 175.554 56.834 174.854C57.5741 174.96 58.3576 174.79 59.0952 174.704L59.4774 174.659C60.1749 174.576 60.8563 174.485 61.5429 174.308C61.6705 174.275 61.6705 174.082 61.5429 174.05C60.7315 173.84 59.9272 173.751 59.0952 173.653L58.8998 173.629C58.1471 173.53 57.3559 173.381 56.6176 173.547C56.4851 173.043 56.2938 172.562 56.0254 172.08C55.6487 171.403 54.9359 170.635 54.8396 169.844C54.8108 169.608 54.8658 169.329 54.9772 169.12L55.0156 169.049C55.0624 168.965 55.1178 168.881 55.1989 168.828C55.2079 168.839 55.2269 168.851 55.2682 168.864C55.8364 169.043 56.3321 168.764 56.5952 168.336C57.7119 168.474 58.9307 168.428 59.9781 168.474L61.037 168.525C62.1684 168.577 63.3513 168.6 64.4145 168.371C64.563 168.339 64.6079 168.092 64.4593 168.029C63.1521 167.47 61.5665 167.291 60.1671 167.077C59.3855 166.957 58.5982 166.865 57.8144 166.76C57.2924 166.689 56.7385 166.573 56.1977 166.545C54.8419 164.857 55.5724 162.194 57.4594 161.468C58.1467 161.77 58.7648 161.594 59.5157 161.53C60.2653 161.465 61.0168 161.422 61.7694 161.425C63.2776 161.431 64.8757 161.828 66.3692 161.657C66.6121 161.629 66.8379 161.306 66.5963 161.109C65.4531 160.176 63.8147 159.872 62.3635 159.673L62.0628 159.633C61.5762 159.569 60.9846 159.476 60.3709 159.421C60.2322 159.15 59.9832 158.945 59.6092 158.894C59.498 158.879 59.3863 158.87 59.2747 158.861L59.2764 158.85C58.3643 158.806 58.4039 157.265 58.654 156.674ZM121.1 185.498C121.117 185.524 121.135 185.548 121.154 185.571L121.183 185.605L121.031 185.543L121.1 185.498ZM74.6656 163.969L74.6373 163.971C73.8468 164.061 73.3038 164.701 73.1104 165.46C72.8294 166.564 72.9672 167.562 72.2913 168.558C71.5959 169.583 71.1684 170.403 71.0673 171.669C71.0258 172.189 71.0449 172.709 70.929 173.219L70.8449 173.576C70.7556 173.957 70.6826 174.323 70.727 174.732C70.7675 175.105 70.9491 175.396 71.3232 175.515C72.542 175.905 73.4831 175.007 73.7979 173.871C74.0699 172.89 73.7067 171.721 74.0905 170.8C74.3031 170.289 74.6952 169.862 74.9168 169.348C75.1363 168.838 75.2465 168.306 75.2817 167.752C75.3485 166.704 74.4219 165.445 74.9389 164.496C75.049 164.293 74.9243 163.963 74.6656 163.969ZM90.8553 153.157C90.03 152.99 89.0937 152.605 88.2797 152.925C87.8613 153.089 87.6546 153.599 88.0081 153.954C88.6218 154.569 89.5138 154.603 90.3404 154.748L90.4132 154.761C91.3906 154.942 92.3698 155.114 93.3503 155.276C95.1949 155.582 97.044 155.852 98.8995 156.082C100.805 156.317 102.716 156.527 104.63 156.685L105.371 156.746C106.988 156.875 108.67 156.973 110.256 156.725C110.486 156.689 110.449 156.354 110.256 156.295C108.518 155.769 106.612 155.628 104.816 155.405C102.906 155.168 100.999 154.918 99.0971 154.621C97.1984 154.325 95.3021 154.006 93.4129 153.655C92.559 153.496 91.7064 153.33 90.8553 153.157ZM61.0743 151.469C61.7985 151.212 62.5954 150.832 63.3802 150.959C64.7336 151.179 65.9381 152.497 67.0094 153.366L66.4715 153.261C63.7191 152.732 60.0743 152.162 57.7639 153.912C57.758 153.902 57.7534 153.892 57.7467 153.882C57.5602 153.599 57.3442 153.378 57.1083 153.135C57.0858 153.114 57.064 153.092 57.0425 153.07L56.9153 152.934L57.2063 152.833C57.8297 152.613 58.5681 152.329 58.6849 152.287L58.693 152.284C59.4877 152.015 60.2834 151.749 61.0743 151.469ZM83.6881 93.7785C83.8014 92.3218 81.5341 92.3337 81.4218 93.7785C81.1769 96.9326 81.8867 100.057 83.4144 102.822C83.4256 102.842 83.438 102.86 83.4498 102.879C82.4943 103.376 81.5279 103.853 80.5399 104.28C79.2762 104.825 77.9887 105.322 76.6781 105.743C75.4926 106.125 74.0321 106.276 73.0354 107.069C70.9338 108.743 71.7233 112.216 72.1276 114.467L72.1907 114.823C72.392 115.981 72.5376 117.17 72.0492 118.281C71.5277 119.469 70.4729 120.35 69.532 121.2L69.342 121.372C68.5084 122.131 67.556 123.054 66.9446 124.083C66.3865 122.93 65.6257 121.987 64.8213 120.925C64.2474 120.167 64.6559 119.918 65.0681 119.178C65.465 118.465 65.6588 117.706 65.5347 116.893C65.3057 115.393 64.1063 114.309 62.9124 113.494C61.5025 112.533 59.9289 111.82 58.4714 110.926C55.4764 109.088 52.5597 106.987 49.9319 104.654C49.8594 104.589 49.7338 104.674 49.7918 104.762C51.8676 107.919 54.3016 110.647 57.2929 112.963C58.5059 113.902 59.7801 114.681 61.0628 115.5L61.4315 115.737C61.9466 116.07 62.589 116.516 62.8218 117.084C63.0562 117.655 62.5565 118.087 62.2875 118.56C61.4334 120.063 61.8455 121.465 62.858 122.739L62.9052 122.798C63.9114 124.038 64.6739 125.191 65.0386 126.775C65.8223 130.178 64.7308 133.722 63.5882 136.917L63.5431 137.043C62.925 138.765 62.2681 140.474 61.7311 142.224L61.5834 142.707C61.0968 144.317 60.6984 145.905 61.2442 147.559C61.4298 148.122 62.1975 148.255 62.5163 147.726C63.6411 145.858 63.9215 143.61 64.6265 141.556C65.3137 139.554 66.1027 137.588 66.7664 135.578C67.6211 132.991 68.1931 130.205 67.8827 127.491C67.8918 127.475 67.9019 127.46 67.9095 127.443L68.1271 126.967C68.7203 125.679 69.2933 124.553 70.3722 123.526C71.4976 122.455 72.7191 121.506 73.6046 120.209C75.528 117.392 74.3384 114.258 74.1061 111.177L74.0795 110.799C74.0373 110.16 74.0142 109.291 74.432 108.848C74.902 108.35 76.0041 108.222 76.6277 108.002C78.2392 107.432 79.8273 106.767 81.3398 105.969C82.7796 105.21 84.1743 104.37 85.4729 103.388L86.131 102.892C87.1695 102.109 88.2463 101.253 88.9424 100.187C89.0227 100.064 88.8862 99.8657 88.7408 99.9245C87.5789 100.396 86.5173 101.146 85.4302 101.798C85.4133 101.759 85.3937 101.719 85.3714 101.678C84.0264 99.244 83.4732 96.5471 83.6881 93.7785ZM46.5731 110.456C46.1102 109.187 44.0003 109.285 44.0845 110.793C44.149 111.952 44.641 112.998 45.0908 114.05L45.1388 114.163C45.6033 115.259 46.1397 116.288 46.7815 117.293C48.008 119.213 49.4445 120.996 50.979 122.678C52.37 124.203 54.1959 125.135 56.2998 124.98C57.1863 124.915 58.0811 124.69 58.8579 124.247C59.7805 123.721 60.7825 122.141 61.9597 122.524C62.0735 122.561 62.1797 122.394 62.0813 122.315C60.7224 121.22 59.18 122.917 57.8789 123.326C55.9185 123.942 53.9067 123.261 52.6449 121.676C51.3275 120.021 50.115 118.169 49.0077 116.367C48.4454 115.452 47.9324 114.503 47.4893 113.524C47.0421 112.537 46.9405 111.463 46.5731 110.456ZM49.7332 102.644C49.7903 102.468 49.5725 102.302 49.4185 102.402C48.5256 102.983 47.7518 103.751 46.9282 104.424C46.0143 105.171 45.0938 105.903 44.159 106.623C42.7962 107.674 44.3767 109.608 45.5763 108.46C47.2179 106.891 49.0158 104.838 49.7332 102.644ZM54.6356 96.4992C54.2729 95.1004 52.1273 95.6772 52.44 97.0597L52.4502 97.1019C53.0424 99.3854 52.199 101.71 50.3985 103.191L50.3322 103.244C49.1931 104.156 50.8069 105.75 51.9347 104.847C54.3969 102.876 55.4212 99.529 54.6356 96.4992Z" fill="black"/>
<path fill-rule="evenodd" clip-rule="evenodd" d="M42.7364 153.372C46.5757 152.959 50.4206 153.046 54.2714 153.157C54.5794 154.164 55.6514 155.023 56.6901 155.055C55.8766 156.293 55.7926 157.969 56.3631 159.282C55.1519 159.764 54.1084 160.631 53.4749 161.864C52.5965 163.574 52.7115 165.477 53.5796 167.057C52.8386 167.728 52.4014 168.817 52.4452 169.844C52.4941 170.989 53.1765 171.967 53.7435 172.915C54.3563 173.94 54.3768 174.843 54.5651 175.991C54.8405 177.671 55.9739 178.69 57.4321 179.327L57.3546 179.632C56.9786 181.095 56.5109 182.639 55.4363 183.709C54.054 185.086 51.9096 185.073 50.0833 185.161L49.9952 185.165C48.3228 185.248 46.6512 185.346 44.9795 185.441L43.7256 185.511C41.8008 185.617 39.9523 185.63 38.381 184.357C35.8156 182.28 34.057 178.843 32.9438 175.8C30.6075 169.412 30.5795 162.403 31.6519 155.75C35.2486 154.591 38.9804 153.775 42.7364 153.372Z" fill="white"/>
<path fill-rule="evenodd" clip-rule="evenodd" d="M35.4677 42.7539C35.2603 40.8268 37.5161 35.6858 37.4617 36.7286C41.0783 31.1521 48.1363 28.9591 54.2258 27.1183C67.1532 22.8507 77.2478 28.0046 86.3307 37.1391C91.6931 42.148 96.7954 47.7431 99.4872 54.677C104.783 67.9045 96.8451 82.9873 84.7738 89.3062C83.7997 89.8334 82.7383 90.334 81.8106 90.9708C76.8206 93.8537 70.9609 94.851 65.4004 96.1059C54.9978 98.4837 41.9331 97.3504 35.8026 87.4465C31.6444 80.4176 32.7491 71.8968 33.0746 64.0964C33.5635 57.2618 34.4219 49.5384 35.4677 42.7539Z" fill="white"/>
<path fill-rule="evenodd" clip-rule="evenodd" d="M91.0717 23.2478C84.3322 16.9475 74.3709 13.8939 65.2633 14.4279C60.3306 14.7172 55.5765 15.9532 51.1186 18.0767C49.7245 18.7408 48.3659 19.5181 47.1132 20.4334C46.2681 20.8277 45.4419 21.2545 44.6415 21.7185C40.6332 24.0405 37.5347 27.5576 35.5514 31.7296C34.6047 33.7209 33.8576 35.8207 33.4345 37.9842L33.3664 38.3404C33.1505 39.426 32.7238 40.8565 33.2637 41.8724C33.6215 42.546 34.3714 42.9706 35.0813 42.9135C34.9272 43.5378 34.7425 44.1619 34.6245 44.7902L34.3031 46.5031C34.2498 46.7886 34.1969 47.0741 34.1449 47.3596C33.8347 49.0611 33.5492 50.7606 33.3208 52.4754C32.8431 56.0462 32.411 59.6244 32.0303 63.2083C31.7575 65.7714 31.5019 68.3371 31.2536 70.9022L31.1053 72.4411C30.8503 75.0903 30.6505 77.7627 30.8239 80.4235C31.0848 84.4149 32.3124 88.0565 34.6951 91.019C34.4681 91.565 34.3916 92.1798 34.2207 92.8587C33.9841 93.7981 33.6759 94.718 33.348 95.6299C33.1946 95.9883 33.0408 96.3468 32.8887 96.7062L32.4889 97.658L32.1768 98.2821C31.8388 98.961 31.5117 99.6498 31.3041 100.353C29.9577 101.071 28.8581 102.244 28.8043 103.851C28.7567 105.303 29.5104 106.841 30.7837 107.581C32.0401 108.313 33.3335 108.025 34.5366 107.466C35.5855 107.772 36.7083 107.81 37.7473 107.484C38.5472 108.208 39.579 108.708 40.7227 108.843C42.4469 109.048 44.0839 108.565 45.6656 107.931L45.7759 107.886C45.8254 107.867 45.8749 107.846 45.9225 107.825C47.742 107.738 49.5539 107.018 50.8446 105.743C51.265 105.33 51.6285 104.858 51.9216 104.329C52.9858 102.404 53.1512 100.042 52.1043 98.1336C52.3289 98.1432 52.5554 98.1525 52.78 98.1584C55.7748 98.2438 58.7748 98.0909 61.7619 97.8941L62.4662 97.8463C64.3991 97.7071 67.2498 97.3795 67.304 94.9837C67.3118 94.6773 66.9957 94.447 66.7064 94.5288C65.6082 94.8389 64.529 95.3263 63.3909 95.5014C61.9025 95.7317 60.361 95.7564 58.8572 95.8402L58.4248 95.8643C55.3925 96.0301 52.2516 96.1313 49.2684 95.5299C47.0418 95.0827 44.7215 94.2679 42.6812 93.2591C40.7227 92.2886 38.9431 91.0191 37.508 89.3614C34.3467 85.7147 33.9279 80.5701 34.0821 75.9565C34.2686 70.4463 34.9159 64.9441 35.2812 59.4417L35.4465 56.9697C35.5827 54.9084 35.7072 52.8441 35.7589 50.7817C35.797 49.2762 35.7724 47.7669 35.7648 46.2614C35.761 45.5096 35.7703 44.754 35.7532 44.0022C35.7437 43.5797 35.6942 43.1666 35.658 42.7534C35.8255 42.6661 35.9816 42.5441 36.1224 42.3825C36.2328 42.255 36.3185 42.1198 36.3775 41.9828C37.0874 41.7752 37.4167 41.4992 37.8773 40.8732C38.2655 40.346 38.7052 39.8587 39.1753 39.4019C40.1764 38.4313 41.3203 37.6376 42.5291 36.9465C45.0279 35.5173 47.7648 34.5619 50.5246 33.7777C54.7501 32.5786 59.1389 31.962 63.427 30.9987C64.609 32.647 65.8613 34.2459 67.1708 35.7933C71.2573 40.62 75.943 44.9232 80.9641 48.7604C81.986 49.5427 83.0216 50.3135 84.072 51.0613C85.4559 53.1713 86.8544 55.2713 88.2739 57.3572L88.8835 58.2502L88.893 58.2673C88.9768 58.3949 89.0569 58.5224 89.1367 58.6499C89.306 58.9202 89.4964 59.1809 89.6981 59.4341C89.8295 59.6261 89.9627 59.8183 90.0978 60.0108C89.839 60.1495 89.603 60.3058 89.4183 60.479C89.0415 60.8347 89.1045 61.4002 89.4183 61.7618C90.4309 62.9304 92.0335 61.4078 93.1983 61.0024C94.4602 61.3866 95.5127 62.8885 96.0361 64.036C96.7898 65.6902 97.0924 67.6846 96.7517 69.4756C96.4398 71.1125 95.5983 72.5268 94.1994 73.4137C94.1499 73.444 94.0968 73.4765 94.0452 73.5049C94.0433 73.5089 94.0433 73.5089 94.0414 73.5068C93.9938 73.5372 93.9444 73.566 93.8949 73.5926C93.2382 73.9543 92.5169 74.1674 91.7691 74.2186C91.3409 74.2493 90.8934 74.2262 90.4651 74.2778C90.0255 74.329 89.6639 74.531 89.2413 74.6375C88.775 74.7573 88.4743 75.3836 88.7676 75.8041C88.9121 76.0115 89.0491 76.2097 89.1958 76.3867C88.7141 76.9538 88.2956 77.58 87.9166 78.1756C87.3991 78.9921 86.9403 79.8583 86.5215 80.7414C86.1352 81.2496 85.7659 81.7673 85.4081 82.2964C83.3811 85.2998 81.8299 88.6457 80.8764 92.1419C79.9323 95.6002 79.3423 99.4848 80.2159 103.016C81.021 106.263 83.3716 108.952 86.8508 109.125C87.5769 109.161 88.291 109.08 88.9625 108.895C90.4376 109.807 92.2655 110.265 93.9013 110.318C95.2249 110.362 96.6737 110.083 97.7546 109.283C99.0368 109.841 100.428 110.157 101.637 110.23C102.991 110.31 104.407 109.941 105.51 109.211C106.56 110.11 107.693 110.869 108.98 111.39C111.194 112.284 113.828 112.174 115.855 110.836C117.886 109.496 118.919 107.091 118.299 104.704C117.728 102.504 115.933 100.89 114.247 99.5L113.914 99.2269C112.246 97.8655 110.561 96.5478 109.49 94.6297C108.354 92.5951 107.939 90.2312 107.827 87.9282C107.583 82.8578 108.615 77.8332 108.929 72.7894C109.253 67.5801 109.072 62.3554 108.362 57.1842C106.982 47.1388 103.35 37.2912 96.7803 29.4609C95.8298 28.3278 94.8123 27.2479 93.7399 26.2243C92.9204 25.1524 92.0346 24.1476 91.0717 23.2478ZM3.67712 80.6043C3.64096 80.6062 3.6067 80.6081 3.57435 80.6214C3.55265 80.6306 3.53438 80.6452 3.51748 80.6612L3.35738 80.8213C3.30029 80.8784 3.30408 80.966 3.35738 81.023C3.4041 81.075 3.48856 81.0765 3.54357 81.0363L3.55912 81.023L3.72491 80.8571C3.74305 80.8375 3.75858 80.8162 3.76658 80.7889C3.77419 80.7623 3.77419 80.7318 3.77609 80.7033C3.77799 80.6519 3.72851 80.6043 3.67712 80.6043ZM92.9757 65.0545C91.4492 64.5918 89.6183 65.6921 88.7085 66.8531C88.2517 67.4355 88.1223 68.233 88.7085 68.8059C89.2071 69.2931 90.1816 69.3824 90.6632 68.8059C91.2094 68.1492 91.6548 67.2393 92.4351 66.8188C93.2821 66.362 94.4165 66.4762 94.6163 67.5895C94.6506 67.7781 94.9208 67.7151 94.9322 67.5459C95.0065 66.4191 94.0187 65.3683 92.9757 65.0545Z" fill="black"/>
<path fill-rule="evenodd" clip-rule="evenodd" d="M60.209 75.7097C59.1442 73.9582 56.8748 78.2486 56.6337 78.9863C56.4201 79.6398 56.2791 80.3093 56.2075 80.9865C55.382 81.1715 54.5249 81.1718 53.6791 81.0097C52.422 80.7685 51.6536 80.0927 50.5611 79.5125C49.8065 79.1115 48.8554 79.5817 48.463 80.2467C48.0014 81.0294 48.2955 81.8419 48.9026 82.4254C50.0539 83.5319 52.3191 83.7861 53.8219 83.4923C54.683 83.324 55.4721 83.0011 56.169 82.5318C56.1736 82.6194 56.1767 82.707 56.1836 82.7944L56.1969 82.9461C56.3124 84.1733 56.6497 85.7165 57.603 86.515C59.1664 87.8249 61.0958 85.3057 59.5767 83.9973L59.5296 83.958C58.5854 83.1951 58.3794 81.1481 58.4302 80.0206C58.4635 79.2847 58.5976 78.5394 58.8299 77.8386L58.8777 77.699C58.9477 77.501 59.7102 75.623 59.9858 75.8621L59.999 75.8756C60.1126 76.0113 60.2962 75.8533 60.209 75.7097ZM51.708 65.8268C50.2708 66.7004 48.0809 68.7375 49.627 70.9033C51.447 72.813 54.0673 70.6235 55.3586 69.6332C56.5559 68.8657 57.9011 70.8396 56.7903 71.7357C47.4596 78.6437 43.673 66.0553 50.9811 64.7997C51.7857 64.6613 52.0846 65.5566 51.708 65.8268ZM67.0553 57.7518C65.6507 57.5026 64.2118 57.8519 63.0495 58.6737L62.9614 58.7371C61.8416 59.556 60.5887 60.994 61.2313 62.4057C61.4892 62.9725 62.2615 63.0614 62.7516 62.8044C63.5675 62.3766 63.7154 61.3239 64.4434 60.7413C65.0405 60.2637 65.8444 59.974 66.6134 60.0439C68.4198 60.208 69.5309 61.9896 70.092 63.525C70.1638 63.7214 70.4521 63.7977 70.5648 63.5869C71.8878 61.1141 69.546 58.1937 67.0553 57.7518ZM44.5564 56.8186C41.8657 56.5968 38.7164 59.3863 39.4248 62.2264C39.7645 63.5892 41.786 63.5501 42.1453 62.2264C42.3431 61.498 42.3233 60.8536 42.8477 60.2487C43.2805 59.7493 43.8954 59.4592 44.5564 59.5037C45.285 59.5528 45.9571 59.9169 46.4677 60.4287C46.9289 60.8909 47.2047 61.5671 47.6824 61.9761C47.8 62.0766 47.9574 62.0831 48.0735 61.9761C48.8957 61.218 48.4022 59.6398 47.8809 58.8484C47.1348 57.716 45.9199 56.9311 44.5564 56.8186ZM72.1792 52.7147C70.4531 51.1867 67.3166 49.7111 64.9891 50.4631C63.6509 50.8953 63.0675 53.0515 64.5614 53.735C66.2913 54.5264 68.2858 54.2044 70.0465 55.0247C70.7859 55.3694 71.4814 55.8001 71.9962 56.4318C72.4018 56.9297 72.8145 57.5848 73.4011 57.8718C73.5552 57.9474 73.764 57.9493 73.8875 57.8092C75.1734 56.3547 73.3019 53.7084 72.1792 52.7147ZM47.5232 50.3872C46.4564 50.0878 45.273 50.0939 44.1892 50.282C43.1059 50.47 42.006 50.919 41.1215 51.5739L41.0188 51.6506C40.0533 52.3782 38.901 53.4368 38.9628 54.7258C39.0144 55.8021 40.1466 56.5301 41.1242 55.966C41.9211 55.5059 42.296 54.5844 42.9707 53.9707C43.5275 53.4643 44.1814 53.065 44.8792 52.7852C45.6542 52.4744 46.4305 52.3288 47.2623 52.3149C47.9027 52.3042 48.547 52.5143 49.1755 52.5815C49.1237 52.6877 49.6205 52.6382 49.9052 52.544C50.1161 52.4542 50.1172 52.1875 50.0441 52.0145C49.6815 51.1575 48.3624 50.6225 47.5232 50.3872Z" fill="black"/>
<path fill-rule="evenodd" clip-rule="evenodd" d="M32.2416 59.5299C34.0562 71.804 46.7233 73.1615 48.9739 60.9762C48.6127 60.8181 48.3529 60.5067 48.4071 59.9022C48.4199 57.2467 47.5956 54.4401 45.2001 52.9634C42.7247 51.4396 39.8277 51.2885 36.9631 51.3269C31.4964 51.1967 31.6114 55.766 32.2416 59.5299ZM50.957 54.1918C52.6726 54.1194 54.8431 54.18 56.38 55.2252C56.8026 54.0875 57.9004 52.8726 59.0096 52.223C54.8867 52.3437 50.6428 51.9379 46.489 51.6229C47.4833 52.3007 48.4083 53.3189 49.0095 54.4961C49.5674 54.1986 50.3664 54.2264 50.957 54.1918ZM58.5191 60.8312C63.2764 77.2063 75.1512 70.069 76.4458 67.9704C78.781 64.4977 79.2203 56.0558 77.1862 53.7987C74.2746 51.7576 70.1526 52.283 66.713 52.2329C60.3939 52.3182 55.9059 54.2085 58.5191 60.8312ZM26.6244 53.2997C27.9169 53.1307 29.2981 53.0966 30.4999 53.6657C30.8699 52.093 32.0314 50.7782 33.343 50.1996C33.5017 50.0005 33.4779 49.8936 34.0202 49.9234C37.35 48.9227 41.0761 49.4522 44.2759 50.4784C49.3295 50.904 54.6315 51.2396 59.7275 51.826C64.5014 49.6821 78.9079 49.3679 79.8032 54.652C80.9294 54.4835 82.8474 53.5972 83.7937 54.7995C90.7352 53.6227 97.9077 55.2582 104.879 55.9866C106.634 56.3097 107.538 59.7924 105.546 59.7448C104.426 59.4408 105.58 57.5762 104.072 57.4359C97.3461 56.7012 90.7668 55.659 83.9715 55.537C84.2078 56.7104 79.477 56.7867 79.4072 56.1015C79.3971 56.1067 79.3864 56.1101 79.3761 56.1147C80.5451 60.4713 79.49 66.7411 77.3773 69.4426C74.4173 72.9801 66.9859 73.9949 63.6908 71.719C59.4401 69.6183 55.0182 59.0737 56.2603 55.5705C54.0061 54.856 51.7775 55.0705 49.438 55.4344C49.9736 56.9473 50.8982 60.6717 49.568 60.9947C49.8122 68.389 43.0827 73.0027 36.8791 69.9695C31.5097 67.4489 29.632 59.4707 30.289 54.6282C29.6205 55.9198 24.0081 54.5136 26.6244 53.2997Z" fill="black"/>
<path fill-rule="evenodd" clip-rule="evenodd" d="M172.311 165.582C172.311 164.04 174.446 161.301 174.45 159.904C172.655 159.583 171.154 157.151 171.552 155.628C172.252 155.092 174.089 154.038 174.849 153.545C179.476 153.686 177.718 147.248 178.241 143.975C178.769 140.773 179.16 137.425 179.932 134.205C181.303 131.629 181.946 128.74 183.256 126.177C183.841 125.327 184.787 124.548 185.07 123.561C187.937 120.431 191.882 118.554 195.13 115.903C193.869 115.499 193.953 113.8 194.035 112.708C193.742 111.284 194.055 109.498 195.354 108.696C195.793 107.266 197.711 106.767 198.833 107.678C199.57 104.375 202.452 102.371 205.472 101.146C205.47 101.136 205.467 101.126 205.464 101.117C208.51 99.9079 212.161 99.3053 215.2 99.9848C213.596 82.1111 227.285 81.455 234.233 82.957C237.787 83.7253 243.119 86.1173 244.33 89.4425C245.014 91.3198 246.976 97.3743 247.256 99.3053C252.561 96.2779 258.712 92.2859 263.313 98.3808C264.235 99.4429 265.254 100.232 266.633 100.597C270.938 101.714 276.652 101.751 279.099 106.14C280.561 108.858 279.246 110.65 279.639 113.37C299.018 126.978 315.212 177.112 311.576 200.435C310.701 208.782 306.431 223.556 295.89 221.714C290.513 227.594 200.271 227.594 190.966 221.714C183.306 223.717 175.523 220.616 172.311 213.28C168.232 203.221 172.555 192.357 173.321 182.038C173.786 179.432 174.479 177.364 174.849 174.697C175.003 173.586 174.471 171.737 174.849 170.712C174.67 170.045 172.311 167.125 172.311 165.582Z" fill="white"/>
<path fill-rule="evenodd" clip-rule="evenodd" d="M214.968 94.2083C214.755 95.121 214.949 96.1499 214.914 97.0866C214.88 97.9817 214.774 98.8717 214.619 99.7537C212.982 98.8931 211.049 98.7825 209.184 99.0595C206.772 99.418 203.981 100.211 202.091 101.823C201.624 102.221 201.237 102.692 200.914 103.211C200.525 103.835 200.277 104.539 199.661 104.986C198.708 105.677 197.527 105.944 196.611 106.71C195.677 107.491 195.097 108.658 194.974 109.863C194.909 110.504 195.015 111.103 195.136 111.729C195.245 112.291 195.192 112.522 195.044 113.064C194.927 113.489 195.149 113.972 195.511 114.206C194.735 114.739 193.97 115.288 193.218 115.859C188.837 119.184 185.132 123.329 182.564 128.206L182.502 128.327L182.43 128.472C181.805 129.758 180.167 133.517 179.964 134.362C179.818 134.804 179.677 135.247 179.546 135.692C179.2 136.874 178.907 138.07 178.664 139.276L178.599 139.605C178.402 140.618 178.062 141.817 178.117 142.897C177.548 145.844 177.044 148.803 176.614 151.775C176.558 152.165 176.713 152.481 176.953 152.691C176.378 152.783 175.807 152.897 175.241 153.012L174.913 153.081L174.749 153.117C173.571 153.383 172.409 153.769 171.638 154.758C170.807 155.828 170.79 157.202 171.625 158.28C172.334 159.195 173.369 159.63 174.45 159.904C174.664 159.957 174.879 160.007 175.095 160.051C175.239 160.081 175.335 159.883 175.198 159.807L174.968 159.68L174.655 159.509C173.84 159.059 172.995 158.552 172.544 157.742C171.931 156.642 172.416 155.624 173.466 155.065C174.346 154.597 175.434 154.477 176.41 154.317L176.814 154.251C177.835 154.088 178.876 153.982 179.907 154.098C180.808 154.201 181.722 154.508 182.45 155.059L182.518 155.112L182.587 155.171C183.226 155.724 184.145 156.968 182.94 157.326C182.019 157.599 180.897 157.531 179.929 157.584L179.804 157.591C178.994 157.647 178.147 157.647 177.327 157.744C177.034 157.778 176.744 157.826 176.46 157.893C175.645 158.085 175.926 159.168 176.643 159.244C176.818 159.263 176.997 159.273 177.177 159.277C177.646 159.629 178.294 159.79 178.848 160.009C179.379 160.219 179.91 160.426 180.446 160.63C179.985 160.651 179.523 160.69 179.064 160.747C178.915 160.764 178.913 160.964 179.064 160.979C180.17 161.092 181.276 161.214 182.378 161.368C184.084 161.605 185.779 161.921 187.436 162.403C188.647 162.757 189.843 163.179 191.003 163.671L191.354 163.822L191.499 163.885C192.552 164.341 193.914 164.875 194.519 165.881C194.835 166.405 194.974 167.215 194.528 167.717C194.051 168.257 193.051 168.196 192.383 168.222L192.33 168.224C190.915 168.293 189.499 168.302 188.082 168.253C185.114 168.148 182.143 167.824 179.228 167.254C178.69 167.149 178.458 167.955 178.999 168.081C182.438 168.88 185.914 169.318 189.442 169.339L189.829 169.34C191.203 169.602 192.551 169.994 193.887 170.436L194.154 170.525C194.944 170.792 196.292 171.057 196.757 171.841C197.066 172.361 196.957 172.718 196.652 172.96C196.114 173.385 194.971 173.465 194.414 173.486C192.183 173.57 189.951 173.585 187.718 173.538C186.602 173.513 185.487 173.473 184.372 173.416C183.281 173.359 182.117 173.197 181.03 173.301C180.562 173.347 180.406 174.033 180.913 174.161C182.254 174.501 183.757 174.471 185.141 174.514L185.3 174.52C186.788 174.573 188.276 174.596 189.764 174.592C191.04 174.587 192.316 174.561 193.591 174.514L194.719 174.47L194.918 174.46C195.519 174.428 196.133 174.359 196.665 174.112C197.157 174.935 196.789 176.039 196.154 176.691C195.55 177.313 194.679 177.618 193.844 177.809C193.765 177.826 193.687 177.843 193.609 177.858C191.775 178.232 189.907 178.199 188.191 179.042C186.748 179.751 185.426 180.933 183.81 181.213C182.364 181.465 181.314 180.829 180.544 179.65C180.501 179.585 180.46 179.521 180.419 179.456C179.813 178.479 179.377 177.404 178.738 176.447C178.412 175.959 178.044 175.49 177.594 175.109C177.392 174.935 175.977 174.184 175.756 173.959C174.805 172.983 175.647 170.93 175.4 169.706C175.11 168.281 173.857 167.78 173.106 166.676C171.678 164.575 175.594 162.607 174.423 160.31C174.408 160.282 174.389 160.261 174.364 160.247C174.261 160.192 174.097 160.261 174.107 160.396C174.237 162.108 172.605 163.286 172.015 164.769C171.344 166.457 172.416 167.479 173.51 168.606C174.914 170.053 173.926 171.673 174.238 173.416C174.279 173.644 174.345 173.846 174.43 174.026C174.19 174.174 174.005 174.421 173.965 174.765C173.483 178.845 172.966 182.912 172.122 186.936L171.941 187.791L171.699 188.931C171.097 191.783 170.535 194.647 170.428 197.563C170.093 200.024 169.96 202.505 170.158 204.982C170.761 212.523 174.976 220.412 182.635 222.727C184.408 223.263 186.288 223.402 188.107 223.026C188.73 222.899 189.603 222.616 190.387 222.189C190.34 222.692 190.303 223.194 190.288 223.696C190.03 223.983 189.913 224.418 190.06 224.789C190.685 224.584 191.252 224.258 191.763 223.813L191.848 223.738C192.151 222.612 192.24 221.38 192.284 220.193L192.295 219.856C192.307 219.528 192.314 219.206 192.326 218.891C192.391 216.933 192.345 214.971 192.244 213.015L192.17 211.575C191.999 208.216 191.861 204.865 191.954 201.497C192.061 197.621 192.393 193.762 192.808 189.908C193.024 187.919 193.268 185.934 193.518 183.95C193.718 182.352 194.053 180.632 194.059 178.985C195.342 178.71 196.602 178.184 197.392 177.107C198.229 175.965 198.353 174.504 197.609 173.334C198.328 172.35 197.739 171.423 196.85 170.798C198.215 170.033 198.976 167.948 199.178 166.497C199.316 165.502 199.359 164.012 198.934 162.893C199.544 162.914 200.154 162.977 200.764 163.082C201.47 163.206 202.162 163.387 202.845 163.612L203.19 163.727C203.365 163.785 203.561 163.854 203.756 163.935C202.522 165.974 204.107 167.824 206.139 168.352C206.526 168.453 206.921 168.524 207.319 168.581C208.217 168.705 209.134 168.743 210.025 168.825C211.729 168.981 213.443 169.204 215.153 169.277C215.529 169.294 215.771 169.118 215.885 168.874C215.889 168.871 215.891 168.868 215.891 168.865C215.931 168.8 215.958 168.731 215.967 168.659C215.962 168.665 215.954 168.668 215.948 168.672C216.03 168.215 215.756 167.658 215.153 167.591C212.684 167.313 210.181 167.3 207.704 167.096L207.546 167.082C206.768 167.015 205.853 166.892 205.237 166.4C204.665 165.942 204.614 165.347 204.843 164.81C204.846 164.823 204.85 164.838 204.852 164.852C204.869 164.958 205.016 164.955 205.064 164.88C205.207 164.663 205.243 164.449 205.207 164.243C205.378 164.045 205.586 163.869 205.811 163.734C206.808 163.128 208.12 162.962 209.254 162.783C210.495 162.587 211.746 162.497 212.999 162.438C215.464 162.321 217.937 162.522 220.362 162.964C220.463 162.981 220.505 162.84 220.406 162.808C219.46 162.495 218.494 162.232 217.516 162.024C217.538 162.02 217.561 162.017 217.584 162.011C217.67 161.99 217.731 161.885 217.702 161.801C217.699 161.788 217.693 161.774 217.687 161.763C218.103 161.572 218.276 160.932 217.773 160.672C216.204 159.862 214.362 159.496 212.64 159.162C210.987 158.844 209.317 158.621 207.645 158.423C204.818 158.091 201.735 158.099 199.014 157.206L198.902 157.169C197.795 156.786 196.472 156.012 196.395 154.705C196.28 152.728 199.218 153.243 200.442 153.29C203.792 153.418 207.138 153.651 210.473 154.009C211.153 154.081 211.834 154.156 212.514 154.232C213.557 154.348 214.602 154.47 215.643 154.6C216.225 154.672 216.819 154.768 217.418 154.859C217.605 154.905 217.788 154.937 217.971 154.955C217.985 154.956 217.996 154.953 218.005 154.947C218.877 155.069 219.752 155.162 220.602 155.136C220.7 155.134 220.76 154.981 220.657 154.935C219.559 154.47 218.337 154.196 217.111 153.98C216.352 153.414 215.436 152.96 214.682 152.522C213.649 151.919 212.465 151.033 211.292 150.672C210.764 150.257 210.166 149.923 209.615 149.696C209.773 149.45 209.83 149.109 209.802 148.821C209.697 147.79 208.871 147.214 207.918 147.012C207.622 146.951 207.281 146.905 206.917 146.888C206.909 146.695 206.824 146.507 206.633 146.366L206.577 146.323L206.537 146.291C205.897 145.771 204.626 144.308 206.156 144.202C206.968 144.144 207.655 144.739 208.301 145.142C209.643 145.979 210.942 146.02 212.474 145.812L213.164 145.714L213.278 145.698C214.386 145.553 215.511 145.533 216.129 146.663C216.793 147.872 217.025 148.974 218.364 149.639C219.643 150.274 221.063 150.4 222.238 151.273C223.496 152.207 224.442 153.519 225.471 154.682C227.742 157.244 230.341 159.507 233.018 161.635L233.494 162.013C235.959 163.961 238.504 165.879 241.263 167.38C241.283 167.389 241.302 167.393 241.319 167.393C241.393 167.385 241.449 167.29 241.382 167.225C238.158 164.093 234.387 161.553 231.075 158.505C229.607 157.153 228.209 155.73 226.865 154.255C225.691 152.96 224.65 151.506 223.281 150.404C222.616 149.868 221.897 149.458 221.092 149.172C220.341 148.903 219.498 148.77 218.806 148.358C217.451 147.553 217.582 145.647 216.227 144.781C215.064 144.039 213.648 144.31 212.36 144.486L212.206 144.507C211.371 144.617 210.507 144.711 209.71 144.381C208.921 144.055 208.286 143.445 207.491 143.121C206.383 142.665 204.812 142.774 204.244 143.992C203.701 145.155 204.442 146.207 205.308 146.979C204.128 147.193 203.092 147.763 203.005 148.926C202.139 148.897 201.275 148.867 200.41 148.836C197.395 148.732 194.366 148.529 191.35 148.583C191.419 148.276 191.449 147.959 191.453 147.637C191.455 147.458 191.447 147.279 191.434 147.096C191.411 146.783 191.205 146.594 190.9 146.562L190.219 146.489L189.991 146.466C188.714 146.346 187.287 146.32 186.315 147.164C185.792 147.62 185.371 148.669 185.626 149.368C185.032 149.572 184.465 149.833 183.949 150.163C182.925 149.82 181.849 149.858 180.82 150.217L180.698 150.26C179.966 150.529 178.929 151.038 178.531 151.764C179.496 145.221 180.797 138.734 182.432 132.325C183.476 129.766 184.795 127.319 186.395 125.062C190.423 119.373 196.227 115.46 201.439 110.963C201.899 111.469 202.395 111.95 202.858 112.414L203.054 112.612C203.998 113.567 204.982 114.482 205.989 115.371C208.091 117.23 210.305 118.946 212.502 120.689C216.932 124.203 220.937 127.935 224.269 132.523C224.329 132.606 224.495 132.558 224.449 132.448C222.163 127.015 217.425 122.884 213.121 119.051C210.857 117.036 208.541 115.069 206.365 112.959C205.35 111.975 204.367 110.957 203.44 109.89L203.209 109.622C202.603 108.912 201.183 106.746 200.245 108.309C200.049 108.636 200.057 109.054 200.245 109.381C200.512 109.847 200.85 110.29 201.22 110.716C199.905 111.432 198.616 112.188 197.356 112.987C197.428 112.602 197.41 112.176 197.343 111.75L197.321 111.615L197.229 111.086C197.098 110.307 197.03 109.583 197.524 108.823C198.142 107.872 199.308 107.576 200.236 107.026C201.306 106.393 201.864 105.547 202.437 104.472C203.534 102.414 206.012 101.589 208.142 100.927L208.41 100.844C210.378 100.234 212.506 99.9074 214.474 100.493C214.289 101.353 214.048 102.199 213.746 103.024C213.425 103.903 212.691 104.879 212.766 105.827C212.818 106.484 213.605 107.185 214.259 106.684C215.184 105.974 215.369 104.818 215.617 103.716C215.857 102.651 216.01 101.559 216.075 100.469C216.138 99.4188 216.089 98.369 215.96 97.3257L215.86 96.5595L215.836 96.3815C215.728 95.607 215.567 94.7941 215.131 94.1869C215.089 94.1286 214.987 94.1273 214.968 94.2083ZM241.818 89.8531C241.804 89.9151 241.794 89.9763 241.785 90.0375C241.722 90.2987 241.698 90.5498 241.706 90.802C241.702 90.893 241.708 90.9841 241.725 91.0743C241.76 91.3711 241.831 91.6758 241.928 92.0089C242.133 92.7176 242.369 93.4176 242.632 94.1072C243.153 95.471 243.767 96.7722 244.527 98.0195C245.899 100.272 247.643 102.143 249.7 103.759C249.309 104.081 248.928 104.416 248.546 104.745C246.698 106.335 244.9 107.997 243.159 109.703C240.067 112.733 237.037 115.82 234.078 118.98C232.618 120.539 231.186 122.118 229.761 123.707L229.715 123.761L229.664 123.821C229.158 124.433 228.147 125.892 227.393 125.657C227.012 125.539 226.611 124.97 226.351 124.699L225.873 124.201C225.714 124.034 225.556 123.866 225.4 123.696C222.617 120.647 219.984 117.481 217.512 114.172C216.305 112.557 215.139 110.912 214.015 109.239C213.438 108.378 212.871 107.51 212.315 106.635C211.778 105.788 211.343 104.879 210.551 104.247C209.97 103.783 209.165 104.208 209.312 104.968C209.542 106.165 210.371 107.178 211.023 108.19C211.679 109.206 212.349 110.213 213.035 111.209C214.355 113.127 215.732 115.005 217.158 116.845C218.387 118.429 219.668 119.973 220.984 121.485L221.344 121.897C222.76 123.511 224.149 125.224 225.714 126.697C227.114 128.017 228.644 127.632 229.92 126.35C231.534 124.729 233.032 122.977 234.585 121.297C237.688 117.94 240.824 114.608 243.992 111.312L245.033 110.227C246.248 108.96 247.457 107.684 248.635 106.386L248.787 106.216C250.13 104.705 251.495 102.813 253.405 102.045C253.543 101.989 253.492 101.793 253.343 101.821C252.121 102.047 251.1 102.662 250.151 103.398C249.297 101.986 248.536 100.497 247.872 98.9747L248.298 98.7897C251.345 97.473 254.78 96.1453 258.052 96.3587C259.371 96.4445 260.777 96.944 261.688 97.9339C262.512 98.8305 262.924 100.04 263.68 100.995C264.547 102.088 265.677 102.581 267.064 102.625L267.739 102.646C268.514 102.671 269.258 102.711 270.045 102.882C272.177 103.344 274.425 104.094 276.213 105.375C276.861 105.839 277.531 106.478 277.844 107.182C278.155 107.879 278.245 108.695 278.275 109.447C278.29 109.814 278.18 110.298 278.272 110.649C278.261 110.609 278.256 110.631 278.255 110.673C277.969 110.898 277.775 111.273 277.753 111.646C275.971 110.717 274.126 109.903 272.245 109.169C270.151 108.352 267.992 107.697 265.832 107.077C263.719 106.471 261.506 106.22 259.352 105.788C259.078 105.732 258.982 106.103 259.238 106.201C261.502 107.071 263.694 108.102 265.977 108.92C268.26 109.739 270.525 110.624 272.741 111.608C277.025 113.511 281.163 115.932 284.537 119.218C287.833 122.426 290.376 126.324 292.74 130.243C295.122 134.19 297.247 138.281 299.141 142.483C302.888 150.795 305.698 159.535 307.548 168.462C309.348 177.149 310.354 186.147 310.019 195.026C309.86 199.244 309.345 203.464 308.147 207.52C307.575 209.458 306.858 211.352 305.953 213.159C304.998 215.065 303.712 216.763 302.84 218.701C302.769 218.86 302.741 219.013 302.745 219.155C299.028 222.377 293.208 220.206 289.185 218.283C279.927 213.856 270.84 209.011 262.203 203.452C253.679 197.964 245.601 191.841 237.713 185.484C238.324 184.855 238.861 184.15 239.334 183.511C240.31 182.192 241.044 180.697 241.549 179.137C242.14 177.311 242.324 175.356 242.156 173.448L242.108 172.908C241.947 171.106 241.762 169.278 241.366 167.517C241.363 167.494 241.345 167.484 241.326 167.484C241.307 167.484 241.288 167.496 241.281 167.517C240.215 170.928 240.129 174.594 238.932 177.961C238.45 179.315 237.702 180.623 236.806 181.746C236.419 182.232 235.965 182.653 235.502 183.065C235.471 182.855 235.43 182.647 235.367 182.443L235.317 182.282C235.255 182.086 235.178 181.868 235.071 181.675C235.222 181.631 235.368 181.584 235.513 181.53C235.628 181.488 235.653 181.303 235.513 181.273C235.134 181.185 234.743 181.141 234.345 181.122C234.282 181.113 234.221 181.111 234.16 181.114C233.414 181.091 232.655 181.145 231.937 181.156C230.692 181.175 229.45 181.198 228.208 181.254C225.828 181.356 223.142 181.812 220.8 181.259C218.673 180.756 216.575 179.337 214.869 178.003C213.378 176.836 212.228 175.45 210.991 174.068C211.08 174.082 211.168 174.095 211.256 174.107L212.054 174.217C213.061 174.351 214.257 174.456 215.056 173.973C215.361 173.788 215.273 173.368 214.962 173.254C214.147 172.954 213.134 173.202 212.265 173.16C211.582 173.128 210.892 173.055 210.219 172.914C209.998 172.869 209.779 172.815 209.561 172.752C207.968 172.293 206.095 170.676 207.361 168.911C207.409 168.844 207.356 168.783 207.291 168.771C207.262 168.766 207.231 168.771 207.207 168.792C205.765 169.986 206.515 172.125 207.878 173.042C208.347 173.359 208.877 173.58 209.426 173.742C209.321 173.934 209.302 174.171 209.428 174.396C210.495 176.299 212.303 177.97 213.996 179.315C215.735 180.695 217.74 181.997 219.897 182.607C222.387 183.309 225.123 182.781 227.649 182.558C229.018 182.437 230.383 182.294 231.75 182.136C232.116 182.094 232.495 182.062 232.88 182.026C232.518 182.502 232.23 183.052 232.041 183.381C231.428 184.453 231.994 185.864 233.183 186.191C233.308 186.226 233.435 186.245 233.561 186.249C233.881 186.891 234.644 187.364 235.349 187.122C235.656 187.017 235.952 186.874 236.236 186.703C240.673 190.6 245.344 194.256 250.148 197.684C259.057 204.041 268.396 209.846 278.079 214.95C280.26 216.1 282.458 217.219 284.674 218.294L286.582 219.213C288.694 220.23 290.855 221.24 293.097 221.871C293.534 221.994 293.992 222.093 294.461 222.169C294.467 222.211 294.469 222.251 294.466 222.29C294.887 222.346 295.255 222.355 295.57 222.316L295.641 222.306C298.39 222.498 301.33 221.827 303.098 219.819C303.393 220.026 303.823 220.049 304.202 219.751C306.109 218.255 307.246 215.976 308.244 213.801C309.255 211.595 310.048 209.295 310.631 206.94C311.795 202.235 312.256 197.381 312.281 192.541C312.368 173.892 307.698 155.078 299.585 138.335C297.527 134.089 295.259 129.921 292.742 125.93C290.231 121.949 287.315 118.249 283.581 115.346C282.507 114.511 281.39 113.748 280.238 113.045C281.011 112.661 281.318 111.687 281.373 110.821C281.493 108.898 281.264 106.682 280.138 105.059C278.558 102.783 275.73 101.379 273.108 100.697C271.74 100.341 270.324 100.133 268.912 100.063C268.184 100.026 267.428 100.146 266.709 100.068C266.074 99.9985 265.682 99.6199 265.317 99.1221C264.382 97.846 263.774 96.5076 262.433 95.5722C261.057 94.6127 259.274 94.2455 257.617 94.345C255.686 94.4611 253.925 95.2218 252.224 96.096C250.689 96.8849 249.199 97.7589 247.748 98.6912C247.481 98.0675 247.231 97.4391 246.998 96.8086C246.545 95.5862 246.152 94.3248 245.833 93.0611C245.509 91.7797 245.557 90.0875 244.579 89.1239C243.73 88.2863 242.093 88.6152 241.818 89.8531ZM175.95 175.355L175.957 175.357C177.934 176.528 178.879 179.456 179.809 180.735C179.733 181.164 179.68 181.6 179.575 182.007C179.335 182.939 179.02 183.864 178.656 184.752C178.015 186.321 177.213 187.816 176.471 189.337C175.874 190.561 175.29 191.807 174.835 193.094C174.884 193.144 174.93 193.202 174.968 193.275C175.462 194.199 175.848 194.017 176.758 193.816L176.759 193.814C177.28 192.22 178.031 190.724 178.706 189.194L178.87 188.821L179.032 188.447C179.596 187.138 180.111 185.818 180.41 184.415C180.601 183.521 180.679 182.601 180.69 181.688C181.184 182.094 181.777 182.386 182.524 182.498C184.124 182.74 185.572 181.739 186.875 180.935L187.168 180.755C187.984 180.259 188.793 179.801 189.733 179.566C190.801 179.299 191.905 179.299 192.989 179.164C193.119 179.147 193.251 179.13 193.382 179.109C192.959 180.51 192.763 182.032 192.511 183.435C192.16 185.402 191.874 187.387 191.6 189.366C191.066 193.202 190.694 197.068 190.505 200.937C190.323 204.683 190.415 208.414 190.55 212.159L190.618 213.985C190.672 215.471 190.717 216.96 190.69 218.447C190.618 218.452 190.545 218.464 190.473 218.481C189.722 218.656 189.209 219.423 188.522 219.764C187.074 220.485 185.323 220.475 183.781 220.111C180.273 219.28 177.356 216.832 175.434 213.84C173.127 210.252 172.28 206.029 172.307 201.804C172.339 197.049 173.109 192.503 174.181 187.913L174.25 187.62C175.152 183.795 175.717 175.392 175.95 175.355ZM274.184 165.761C274.164 167.04 274.684 168.408 274.97 169.651C275.277 170.99 275.584 172.329 275.895 173.667L276.175 174.866C276.408 175.866 276.638 176.866 276.844 177.871C277.013 178.698 277.084 179.787 277.362 180.698C274.062 179.363 270.757 178.042 267.458 176.712C263.393 175.073 259.309 173.479 255.235 171.866C251.176 170.26 247.14 168.434 242.998 167.061C242.013 166.733 241.345 168.306 242.289 168.743C246.495 170.693 250.945 172.22 255.254 173.929L261.487 176.403C267.2 178.67 272.918 180.926 278.664 183.105C282.579 184.588 286.478 186.115 290.417 187.524C292.294 188.196 294.189 188.83 296.058 189.526C297.623 190.11 299.316 190.975 299.896 192.657C299.926 192.744 300.047 192.708 300.033 192.619C299.799 190.99 298.59 189.972 297.227 189.202C295.418 188.177 293.431 187.431 291.521 186.609L291.261 186.497C287.362 184.796 283.431 183.164 279.488 181.56C279.527 181.464 279.55 181.362 279.552 181.255L279.563 181.259C279.635 180.53 279.301 179.88 279.06 179.202L278.371 177.256C277.911 175.961 277.499 174.649 277.074 173.342C276.63 171.976 276.182 170.611 275.735 169.246C275.356 168.09 275.101 166.711 274.453 165.678C274.374 165.553 274.159 165.623 274.184 165.761ZM198.248 162.886L198.297 163.134C198.354 163.425 198.408 163.717 198.421 164.011C198.46 164.779 198.372 165.547 198.168 166.289C197.967 167.023 197.687 167.732 197.289 168.382C196.911 168.994 196.364 169.475 196.015 170.102C195.979 170.169 195.956 170.235 195.947 170.3C195.813 170.245 195.682 170.196 195.554 170.155C194.49 169.818 193.403 169.536 192.301 169.324L192.476 169.312L192.589 169.304C194.43 169.148 196.167 168.545 195.792 166.396C195.58 165.181 194.626 164.366 193.604 163.788L193.476 163.717C193.42 163.686 193.363 163.656 193.308 163.629C194.233 163.473 194.904 163.281 196.038 163.09C196.774 162.966 197.512 162.897 198.248 162.886ZM282.363 136.407C280.553 140.065 279.191 143.954 278.163 147.9C277.667 149.806 277.246 151.73 276.907 153.67L276.796 154.318L276.733 154.669C276.417 156.398 276.015 158.271 276.48 159.958C276.631 160.51 277.546 160.728 277.803 160.132C278.575 158.332 278.467 156.263 278.691 154.337C278.926 152.316 279.248 150.305 279.648 148.31C280.417 144.477 281.496 140.733 282.7 137.018L282.834 136.606C282.936 136.331 282.491 136.149 282.363 136.407ZM212.774 152.771C213.314 153.025 213.853 153.258 214.33 153.49C214.366 153.509 214.404 153.526 214.442 153.546C213.903 153.454 213.361 153.368 212.82 153.288C212.825 153.113 212.808 152.939 212.774 152.771ZM191.662 150.939C191.743 150.966 191.815 151.008 191.877 151.067L191.907 151.097C191.982 151.166 192.034 151.248 192.065 151.342C192.113 151.434 192.135 151.532 192.131 151.636L192.103 151.839C192.067 151.968 192.002 152.08 191.907 152.176L191.753 152.295C191.649 152.355 191.538 152.389 191.419 152.397L191.368 152.399L191.214 152.399C191.125 152.396 191.042 152.374 190.964 152.333C190.883 152.307 190.812 152.265 190.749 152.206L190.719 152.176C190.645 152.106 190.592 152.025 190.561 151.93C190.52 151.852 190.499 151.769 190.496 151.681L190.496 151.636L190.523 151.434C190.555 151.32 190.609 151.221 190.685 151.134L190.719 151.097L190.873 150.978C190.977 150.918 191.089 150.883 191.207 150.876L191.258 150.874H191.368C191.473 150.87 191.571 150.892 191.662 150.939ZM196.623 150.681C197.028 150.756 197.257 151.247 197.155 151.619C197.042 152.032 196.65 152.215 196.256 152.159L196.217 152.152C195.756 152.067 195.304 152.1 194.865 152.262C194.479 152.405 194.03 152.102 193.927 151.729C193.81 151.303 194.072 150.934 194.46 150.791C195.156 150.534 195.902 150.549 196.623 150.681ZM276.948 123.598C276.025 124.95 275.449 126.747 274.881 128.292L274.824 128.446C274.22 130.069 273.638 131.706 273.094 133.351C272.01 136.635 270.596 140.071 270.335 143.54C270.287 144.181 271.267 144.437 271.551 143.87C272.367 142.238 272.806 140.538 273.289 138.789C273.749 137.121 274.229 135.458 274.709 133.796C275.189 132.134 275.653 130.468 276.126 128.804C276.586 127.186 277.226 125.386 277.331 123.702C277.345 123.483 277.054 123.442 276.948 123.598ZM256.127 112.714C254.895 113.569 253.887 114.819 252.844 115.888C251.787 116.973 250.744 118.068 249.711 119.176C247.984 121.027 246.289 122.909 244.537 124.737C241.048 128.382 237.1 131.735 232.283 133.448C231.118 133.863 231.628 135.733 232.797 135.31C237.723 133.524 241.804 130.221 245.404 126.486C247.268 124.551 248.979 122.483 250.647 120.379C251.427 119.394 252.202 118.406 252.966 117.409L253.423 116.81C254.383 115.542 255.558 114.28 256.261 112.849C256.3 112.768 256.214 112.654 256.127 112.714Z" fill="black"/>
<path fill-rule="evenodd" clip-rule="evenodd" d="M197.557 57.9599C197.967 54.3536 197.436 46.8158 197.4 46.3579C197.175 43.4628 198.532 32.0305 201.096 33.0839C205.398 29.6786 211.127 28.9266 216.485 28.5674C227.613 27.8212 239.451 29.5343 248.044 37.0232C252.293 40.9124 256.431 46.5689 256.098 52.4587C259.959 58.0415 265.402 65.6995 260.591 72.2262C258.956 74.3114 256.357 75.088 254.303 76.6672C250.171 79.9998 247.579 84.7826 243.408 88.0955C232.358 98.0254 213.594 100.1 202.737 88.8053C194.341 80.6254 195.699 68.388 197.175 57.9599C198.168 50.949 196.756 64.9953 197.557 57.9599Z" fill="white"/>
<path fill-rule="evenodd" clip-rule="evenodd" d="M231.35 13.2743C228.374 12.6737 225.318 12.3 222.279 12.4125L222.045 12.4216C219.758 12.513 216.862 12.7152 214.867 14.0449C214.752 13.9298 214.568 13.8707 214.4 13.9505C212.03 15.0821 209.422 15.9002 206.926 16.7131C204.442 17.5221 201.864 18.0561 199.26 18.2714C198.28 18.3524 197.441 19.4103 198.062 20.3592C198.209 20.5854 198.353 20.8138 198.496 21.0427C198.257 21.0178 198.017 20.992 197.778 20.9678C196.99 20.8885 196.203 21.7295 196.249 22.4967C196.279 22.9792 196.331 23.4561 196.408 23.9272C196.108 23.9209 195.809 23.9659 195.521 24.0877C194.061 24.7041 194.163 26.4427 194.272 27.7654C194.424 29.6011 195.11 31.5454 196.385 32.9192C195.433 33.9078 194.759 35.0883 194.357 36.4904C194.066 37.5142 193.904 38.6048 193.984 39.6706L194.009 39.9896C194.108 41.1462 194.305 42.4267 195.137 43.2587C195.564 43.6877 196.09 43.844 196.592 43.7944C196.289 46.4598 196.094 49.1404 195.911 51.8115L195.825 53.0882C195.417 59.2616 195.11 65.4752 195.191 71.6588C195.265 77.4375 196.407 83.0466 199.951 87.7386C203.179 92.0112 207.814 95.1609 213.057 96.3582C215.882 97.0045 218.767 97.0503 221.627 96.6385C223.013 96.4383 224.409 96.1313 225.724 95.647C227.181 95.1094 228.227 94.3182 229.207 93.1323C229.671 92.5699 229.448 91.3726 228.525 91.485C227.129 91.6543 225.855 91.8583 224.516 92.2711L224.325 92.3316C222.992 92.7586 221.612 93.077 220.218 93.2124C217.364 93.4888 214.466 93.2105 211.732 92.3449C207.28 90.934 203.446 87.7901 200.988 83.8397C198.071 79.1572 197.742 73.8418 197.784 68.4577C197.829 62.5495 198.021 56.638 198.335 50.736L198.388 49.7524C198.554 46.7153 198.714 43.6762 198.855 40.6372C198.899 39.6839 198.966 38.723 199.086 37.7716C200.186 37.1272 201.171 36.2388 201.814 35.1425C203.105 35.6763 204.462 36.0614 205.711 36.3684C208.604 37.0799 211.608 37.2527 214.552 36.8071C215.347 37.1352 216.157 37.4237 216.979 37.6719C217.202 37.7705 217.424 37.8673 217.646 37.9623C219.629 38.8107 221.64 39.5295 223.734 40.0557L224.248 40.1839C225.349 40.4555 226.546 40.7229 227.718 40.8069C227.911 40.8812 228.119 40.9441 228.346 40.9994C229.413 41.2587 230.521 41.3407 231.615 41.2492C232.681 41.1596 233.452 40.0824 232.864 39.0738C232.435 38.3379 232.002 37.6038 231.566 36.8717C233.085 37.5047 234.654 38.0309 236.237 38.4771C237.834 38.927 239.455 39.3064 241.078 39.6553C241.945 39.8402 242.816 40.0042 243.682 40.1891C244.302 40.3207 245.253 40.3893 245.758 40.7973C246.317 41.2454 246.475 42.2902 246.687 42.9346C246.965 43.7716 247.226 44.6124 247.465 45.4627C247.939 47.1595 248.328 48.8811 248.629 50.6199C248.931 52.3606 249.133 54.1184 249.245 55.882C249.358 57.6437 249.308 59.4168 249.489 61.1708C249.587 62.1012 250.586 62.5797 251.323 61.9296C251.41 61.8533 251.497 61.7762 251.584 61.6983L251.712 61.5807C252.344 61.0087 252.956 60.4024 253.461 59.7199C253.552 59.5941 253.64 59.4625 253.722 59.3291C253.735 59.3291 253.747 59.3252 253.76 59.3157L253.9 59.2103C255.442 58.0626 258.018 56.5663 259.522 58.473C260.001 59.0804 260.246 59.8539 260.45 60.6L260.807 61.9355C261.038 62.8073 261.255 63.6839 261.383 64.5759C261.67 66.574 261.526 68.8771 260.151 70.4786C259.602 71.1192 258.845 71.5768 258 71.6969C257.529 71.7617 257.064 71.6816 256.597 71.6225C256.122 71.5634 255.665 71.6588 255.19 71.613C254.435 71.5386 254.105 72.4423 254.387 73.0105C254.54 73.3156 254.719 73.5787 254.923 73.8017C254.759 73.9428 254.603 74.0953 254.452 74.2555C254.006 74.3985 253.606 74.7054 253.306 75.1115C253.064 75.4395 252.938 75.796 252.917 76.1716C252.891 76.265 252.868 76.3603 252.847 76.4576L252.438 77.1214C252.348 77.267 252.258 77.4108 252.168 77.5519C251.127 79.1916 249.972 80.5795 248.536 81.8874C247.154 83.1458 245.653 84.2725 244.355 85.6224L244.202 85.7826C242.991 87.0583 241.715 88.6025 242.189 90.4574C242.311 90.934 242.977 91.2772 243.411 90.955C244.809 89.9178 245.512 88.2744 246.698 87.0161C247.918 85.7196 249.27 84.5547 250.494 83.2621C251.651 82.0419 252.565 80.6596 253.253 79.1382C253.528 79.4413 253.928 79.6568 254.483 79.7407C255.436 79.8836 256.324 79.325 256.74 78.4995C257.007 78.6177 257.279 78.7245 257.554 78.8083C258.999 79.2507 259.909 77.6434 259.363 76.4557C259.072 75.8189 258.708 75.266 258.256 74.8008C259.669 74.6063 261.106 73.8761 262.035 72.9647C264.364 70.675 264.685 67.2336 264.16 64.1736C263.882 62.5511 263.402 60.9096 262.778 59.3863C262.669 59.1212 262.553 58.8543 262.425 58.5912C262.496 58.5893 262.568 58.5588 262.614 58.4997C263.036 57.9239 263.548 57.453 263.861 56.8086C264.149 56.2176 264.469 55.6189 264.696 55.0031C265.163 53.7428 265.392 52.3206 265.544 50.9879C265.859 48.2596 265.737 45.5485 265.319 42.8373C264.608 38.2197 262.891 33.8006 260.361 29.9231C260.499 29.8507 260.631 29.7633 260.754 29.66L260.814 29.607L260.913 29.5178C261.635 28.8644 261.573 27.6398 260.913 26.978L260.705 26.7692C260.441 26.5071 260.213 26.2995 259.787 26.0141C259.724 25.9719 259.66 25.9323 259.595 25.8953C259.818 25.4831 259.896 25.0011 259.74 24.4694C259.199 22.617 256.533 22.6826 254.844 23.4904C252.975 21.8223 250.903 20.3743 248.656 19.2018C243.306 16.4106 237.257 14.464 231.35 13.2743ZM259.005 62.0631C258.006 61.7371 256.679 62.4215 255.781 62.8333C254.643 63.3557 253.674 64.1279 252.736 64.9439C252.269 65.3519 252.185 66.0192 252.301 66.5892C252.313 66.6464 252.324 66.7056 252.338 66.7647C252.462 67.3728 253.14 67.8514 253.741 67.8342C254.997 67.7999 255.596 66.7151 256.307 65.7961C256.391 65.9448 256.496 66.0821 256.626 66.1851L256.713 66.2537C257.008 66.4784 257.334 66.6581 257.724 66.6407C258 66.6274 258.265 66.5568 258.509 66.4291C259.119 66.1069 259.388 65.3176 259.222 64.6751C259.119 64.2709 258.883 63.9544 258.574 63.7351L258.689 63.6564C258.936 63.4849 259.16 63.3042 259.335 63.0375L259.375 62.9744H259.36C259.55 62.6465 259.426 62.2004 259.005 62.0631Z" fill="black"/>
<path fill-rule="evenodd" clip-rule="evenodd" d="M229.062 74.0296C226.727 71.3166 222.795 71.1276 219.538 71.806C217.447 72.2414 215.412 72.9667 213.289 73.2355C212.297 73.3612 211.295 73.3987 210.296 73.3802C209.315 73.3621 208.332 73.1644 207.355 73.2012C207.204 73.2067 207.148 73.4041 207.278 73.4843C208.619 74.3081 210.426 74.5724 212.01 74.7335C212.005 74.8507 211.998 74.9651 211.982 75.0622C211.939 75.3209 211.899 75.5779 211.867 75.8383C211.796 76.4258 211.715 77.0113 211.635 77.5975C211.477 78.7513 211.427 79.9416 211.149 81.0754L211.1 81.2638C211.036 81.5022 211.021 81.717 211.042 81.9107L210.978 81.8816L210.774 81.783L210.641 81.72C210.154 81.4943 209.689 81.3299 209.117 81.3847C208.681 81.4263 208.315 81.7235 208.313 82.1889C208.302 84.2775 211.117 84.9492 212.727 85.349L213.199 85.4653C215.248 85.9652 217.341 86.4034 219.449 86.5082C222.831 86.6762 226.632 85.7431 228.845 82.9994C230.91 80.4394 231.288 76.6164 229.062 74.0296ZM213.701 82.8051C214.056 79.6605 217.92 79.4876 219.031 81.4818C219.525 78.7022 226.822 81.2415 226.252 81.794C224.089 83.8886 220.807 84.0771 217.985 83.6897C216.548 83.4924 215.11 83.1712 213.701 82.8051ZM217.989 74.5631L218.961 74.4233L219.343 74.3706C221.752 74.048 224.46 73.8815 226.441 75.4256C227.164 75.9891 227.57 76.7243 227.722 77.514C225.849 77.2363 223.968 77.0244 222.082 76.848L221.567 76.8008C220.387 76.6944 219.208 76.5823 218.029 76.4646L217.191 76.3798L216.353 76.2929C216.058 76.262 214.072 76.1604 213.698 76.2286C213.659 75.8931 213.607 75.1668 213.522 74.8403C214.934 74.8882 216.339 74.7833 217.742 74.5969L217.989 74.5631ZM213.517 60.5078C212.077 61.3829 209.884 63.4235 211.432 65.5931C213.256 67.506 215.88 65.3127 217.174 64.3207C218.373 63.552 219.721 65.5292 218.608 66.4268C209.261 73.3467 205.468 60.7366 212.789 59.4789C213.595 59.3403 213.894 60.2371 213.517 60.5078ZM210.941 64.1945L210.871 64.1568L210.848 64.1427C210.808 64.1165 210.833 64.1193 210.925 64.1512L210.994 64.176V64.2248C210.977 64.2139 210.958 64.2057 210.941 64.1945ZM229.379 56.4195L229.379 56.3766C229.377 55.1608 228.669 52.3849 226.918 52.3849C225.825 52.3849 225.161 54.2741 225.046 56.2216L225.042 56.301C224.991 57.5117 225.324 60.1582 226.918 60.1582C228.53 60.1582 229.362 57.6517 229.379 56.4195ZM203.611 56.0382L203.611 55.9953C203.613 54.7795 204.321 52.0036 206.072 52.0036C207.138 52.0036 207.795 53.7995 207.934 55.6943L207.944 55.8403C208.013 57.0101 207.702 59.777 206.072 59.777C204.46 59.777 203.628 57.2704 203.611 56.0382ZM228.38 44.0957C226.952 43.8786 225.061 44.2911 224.395 45.7436C224.098 46.3906 224.449 47.1062 225.197 47.142C227.005 47.2286 228.626 46.8263 230.213 48.0017C230.895 48.5076 231.47 49.2081 231.951 49.9068L232.134 50.1727L232.285 50.3918C232.612 50.8728 232.921 51.3953 232.873 51.9755C232.859 52.1473 233.034 52.3103 233.201 52.3034C234.241 52.2607 234.353 50.957 234.216 50.174C233.962 48.7208 233.259 47.3567 232.284 46.2579C231.26 45.1041 229.908 44.3281 228.38 44.0957ZM208.707 45.8594C207.722 45.2262 206.462 44.9829 205.308 45.0762C203.033 45.2594 199.216 47.1934 199.719 49.9722C199.874 50.8292 201.066 51.2814 201.768 50.8059C202.523 50.2948 202.707 49.5003 203.269 48.8323C203.718 48.2986 204.286 47.9126 204.895 47.5837C205.494 47.2593 206.188 47.0627 206.869 46.991L206.982 46.9802C207.392 46.9454 209.461 46.9547 209.157 47.727C209.098 47.8782 209.323 47.998 209.426 47.8836C210.061 47.182 209.342 46.2678 208.707 45.8594Z" fill="black"/>
</svg>
